<?xml version="1.0" standalone="no"?>
<!DOCTYPE svg PUBLIC "-//W3C//DTD SVG 20010904//EN"
 "http://www.w3.org/TR/2001/REC-SVG-20010904/DTD/svg10.dtd">
<svg version="1.0" xmlns="http://www.w3.org/2000/svg"
 width="700.000000pt" height="700.000000pt" viewBox="0 0 700.000000 700.000000"
 preserveAspectRatio="xMidYMid meet">
<metadata>
Created by potrace 1.11, written by Peter Selinger 2001-2013
</metadata>
<g transform="translate(0.000000,700.000000) scale(0.100000,-0.100000)"
fill="#000000" stroke="none">
<path d="M3425 6938 c-26 -20 -28 -20 -55 -5 -38 23 -72 21 -104 -4 -25 -20
-28 -20 -51 -5 -34 22 -65 20 -100 -8 -25 -21 -32 -22 -45 -11 -8 7 -27 17
-42 20 -22 6 -33 1 -57 -23 -27 -26 -32 -28 -48 -16 -29 22 -74 17 -104 -12
-22 -21 -30 -24 -47 -15 -39 21 -79 13 -104 -19 -23 -30 -25 -30 -55 -15 -37
19 -76 8 -94 -27 -6 -13 -13 -25 -15 -26 -1 -2 -18 2 -38 9 -41 15 -76 2 -96
-36 -11 -20 -16 -22 -46 -13 -46 12 -71 3 -89 -33 -9 -16 -17 -29 -18 -29 -1
0 -18 4 -36 10 -32 9 -37 7 -70 -28 -33 -34 -41 -38 -77 -34 -35 3 -44 0 -63
-23 -11 -15 -21 -34 -21 -41 0 -10 -14 -14 -50 -14 -47 0 -52 -2 -71 -34 -18
-32 -23 -34 -47 -25 -14 6 -36 8 -49 4 -22 -5 -53 -51 -53 -79 0 -11 -9 -13
-38 -9 -34 4 -42 1 -60 -22 -12 -15 -22 -36 -22 -46 0 -16 -8 -19 -43 -19 -49
0 -73 -19 -79 -60 -3 -22 -9 -26 -50 -30 -57 -7 -59 -9 -67 -57 -6 -36 -8 -38
-48 -41 -47 -3 -58 -13 -70 -62 -8 -29 -14 -36 -39 -38 -39 -5 -62 -27 -66
-65 -3 -26 -9 -32 -38 -40 -49 -12 -68 -33 -72 -75 -3 -33 -7 -37 -41 -45 -44
-11 -72 -45 -65 -82 5 -22 2 -25 -21 -25 -41 0 -60 -20 -69 -70 -7 -40 -10
-45 -42 -51 -43 -9 -62 -34 -58 -78 3 -30 0 -35 -27 -44 -47 -15 -55 -26 -55
-72 0 -41 -2 -44 -35 -55 -43 -14 -58 -39 -50 -83 5 -29 3 -34 -32 -52 -36
-19 -38 -23 -38 -68 0 -44 -3 -48 -35 -65 -33 -16 -35 -19 -35 -70 0 -48 -3
-55 -27 -68 -32 -17 -41 -41 -33 -88 6 -31 4 -36 -24 -50 -37 -20 -48 -55 -30
-97 11 -27 10 -33 -4 -41 -26 -14 -57 -50 -57 -65 0 -8 7 -27 15 -43 15 -29
14 -30 -15 -45 -37 -19 -48 -56 -28 -98 14 -30 14 -32 -16 -52 -36 -24 -43
-54 -23 -95 15 -29 14 -31 -13 -50 -36 -26 -42 -52 -20 -94 l17 -34 -28 -22
c-33 -24 -37 -55 -14 -100 14 -28 14 -31 -5 -50 -32 -32 -36 -67 -11 -101 l22
-30 -25 -30 c-32 -38 -32 -46 -2 -89 l24 -35 -24 -22 c-30 -28 -30 -60 0 -98
24 -29 24 -30 5 -54 -26 -33 -24 -74 5 -102 24 -23 24 -23 5 -47 -26 -34 -24
-65 7 -101 l26 -31 -21 -26 c-28 -36 -26 -57 9 -97 29 -34 29 -34 10 -52 -28
-25 -25 -64 7 -97 23 -24 25 -31 15 -53 -21 -46 -15 -82 18 -105 30 -21 30
-23 15 -46 -24 -37 -19 -70 17 -97 30 -24 31 -27 18 -56 -18 -44 -6 -79 34
-98 33 -15 33 -16 18 -43 -23 -39 -7 -80 36 -99 24 -11 31 -19 26 -30 -4 -9
-8 -32 -8 -51 -1 -28 5 -38 31 -55 30 -19 32 -24 30 -69 -2 -46 1 -52 29 -70
28 -19 31 -26 30 -66 -1 -42 1 -46 36 -65 34 -18 37 -23 40 -70 3 -47 5 -51
41 -68 34 -17 37 -22 37 -62 0 -48 24 -75 67 -75 21 0 23 -5 23 -49 0 -52 9
-64 53 -75 24 -6 27 -11 27 -45 0 -44 19 -65 67 -76 29 -6 32 -10 31 -41 -2
-41 14 -59 62 -71 29 -8 37 -16 48 -49 14 -43 44 -74 73 -74 15 0 19 -7 19
-34 0 -43 21 -64 71 -72 36 -6 39 -9 39 -39 0 -41 27 -65 73 -65 35 0 37 -1
37 -34 0 -39 21 -66 53 -66 40 0 67 -12 67 -29 0 -37 29 -61 76 -61 41 0 44
-2 44 -25 0 -39 44 -79 81 -71 26 5 31 1 49 -34 21 -42 44 -54 82 -45 20 5 27
0 41 -29 18 -38 49 -53 92 -42 21 5 27 1 39 -28 16 -38 42 -51 85 -41 25 5 31
2 50 -31 21 -35 23 -36 67 -31 40 4 46 2 54 -17 14 -37 36 -49 82 -43 39 5 45
3 75 -30 33 -36 39 -37 98 -18 16 5 24 0 35 -20 17 -31 49 -41 92 -26 29 10
33 9 59 -21 26 -32 27 -33 72 -21 45 12 47 12 76 -17 33 -33 42 -35 86 -16 28
12 32 11 63 -16 37 -32 51 -34 92 -13 27 14 30 14 54 -10 30 -29 43 -31 91 -8
34 16 36 16 59 -6 30 -28 55 -30 99 -6 34 18 35 18 62 -3 35 -28 63 -28 91 -1
l23 22 31 -27 c38 -31 59 -33 93 -6 l25 20 36 -21 36 -21 42 25 c43 24 43 24
77 6 36 -19 68 -14 103 18 15 13 19 13 40 -1 32 -22 52 -20 88 11 29 24 35 25
64 15 50 -18 73 -15 96 15 18 23 24 25 40 15 11 -7 35 -12 55 -12 32 0 42 8
70 58 1 1 18 -5 39 -13 40 -17 58 -12 91 25 15 17 26 20 57 15 50 -9 70 -1 91
35 15 25 21 28 37 20 10 -5 32 -10 49 -10 24 0 36 8 53 35 13 20 29 33 36 30
49 -18 62 -16 90 12 16 15 31 34 33 41 3 8 13 10 34 3 41 -11 75 3 88 39 10
27 15 30 58 30 48 0 71 15 83 57 6 18 14 21 54 20 46 -2 47 -1 67 40 18 39 23
42 60 43 50 0 64 9 74 46 7 26 12 29 48 30 52 1 60 7 74 54 12 38 14 40 54 40
47 0 62 12 71 58 6 28 10 32 40 32 38 0 61 20 70 58 3 15 7 31 8 36 1 4 18 9
38 11 49 3 67 19 74 66 6 35 10 39 35 39 40 0 69 32 69 75 0 31 3 35 25 35 35
0 75 42 75 78 0 26 5 31 34 36 43 8 56 25 63 76 5 34 9 40 29 40 39 0 67 36
62 80 -3 38 -2 40 39 55 44 17 57 37 51 84 -2 19 3 26 27 32 39 11 55 34 55
78 0 31 5 39 38 56 36 20 37 22 36 72 -1 42 2 54 16 58 9 3 27 16 40 30 21 22
22 29 13 60 -10 31 -9 35 11 41 46 14 57 34 51 89 -6 48 -5 52 20 65 39 21 48
44 35 86 -7 20 -10 36 -8 38 1 1 16 10 32 20 25 16 28 22 23 55 -3 20 -8 43
-11 51 -4 10 5 20 27 30 30 14 32 18 32 71 0 45 5 63 29 97 l28 41 -21 37
c-18 29 -19 39 -9 45 7 5 16 9 19 9 4 0 12 14 19 31 12 27 11 36 -5 66 l-19
35 27 20 c31 23 35 54 12 99 -15 28 -14 31 10 63 30 40 31 59 5 96 l-19 27 24
23 c30 28 31 55 5 95 -19 29 -19 30 -1 50 32 34 33 59 7 98 -24 35 -24 36 -5
53 32 29 33 52 3 95 -27 39 -27 41 -11 69 23 38 21 69 -5 97 -21 23 -21 25 -5
52 24 41 21 63 -13 96 -27 26 -28 30 -15 49 22 31 18 67 -11 97 -25 26 -25 28
-10 57 23 44 20 59 -15 94 l-30 31 16 39 c14 36 14 43 1 63 -9 13 -25 26 -36
30 -16 5 -18 10 -10 25 24 44 6 105 -36 120 -21 8 -23 13 -14 29 19 37 12 68
-25 98 -25 21 -32 32 -25 43 19 30 11 78 -16 99 -15 12 -33 21 -41 21 -10 0
-11 4 -3 19 19 36 12 78 -16 100 -15 12 -32 21 -38 21 -8 0 -12 19 -11 53 0
50 -1 53 -37 70 -32 16 -37 22 -32 43 11 43 -3 71 -45 90 -37 16 -38 17 -28
50 9 30 7 37 -12 58 -13 13 -33 27 -46 30 -21 5 -23 12 -22 51 2 49 -7 61 -55
72 -25 5 -28 10 -28 49 0 50 -17 71 -65 80 -31 6 -34 9 -37 48 -3 39 -5 42
-50 56 -44 14 -48 18 -48 48 0 41 -30 72 -70 72 -27 0 -30 3 -30 34 0 39 -19
63 -58 72 -49 10 -52 13 -52 42 0 36 -25 60 -70 64 -30 3 -35 7 -41 38 -9 43
-32 60 -81 60 -31 0 -38 4 -38 20 0 54 -37 86 -91 78 -19 -2 -24 3 -30 32 -10
45 -35 63 -81 57 -34 -5 -37 -3 -43 24 -9 39 -45 62 -92 57 -33 -3 -38 0 -41
19 -5 37 -46 62 -91 56 -35 -5 -39 -3 -45 21 -10 39 -48 61 -86 47 -30 -10
-32 -9 -42 20 -13 38 -40 52 -87 44 -33 -5 -39 -3 -49 19 -18 41 -52 57 -92
46 -31 -9 -37 -7 -52 12 -10 13 -18 26 -18 30 0 14 -46 19 -74 8 -25 -9 -32
-7 -68 25 -39 36 -54 38 -98 15 -10 -6 -20 0 -32 21 -23 37 -63 47 -101 26
-28 -17 -29 -16 -54 13 -28 34 -65 39 -101 14 -21 -15 -24 -14 -43 9 -26 34
-72 44 -105 22 -24 -15 -26 -15 -55 9 -36 30 -43 31 -87 7 l-34 -18 -29 30
c-24 23 -35 28 -57 22 -15 -3 -35 -14 -45 -22 -16 -15 -19 -14 -45 10 -33 32
-60 34 -95 7 -14 -11 -28 -20 -32 -20 -4 0 -18 9 -32 20 -33 26 -54 25 -88 -2z
m-5 -113 c16 -20 64 -19 96 2 23 15 28 15 60 0 42 -20 61 -21 94 -3 22 13 27
12 53 -10 34 -28 47 -29 89 -8 28 15 31 14 52 -4 11 -10 29 -22 38 -25 22 -8
78 11 78 26 0 6 12 -1 28 -15 38 -36 59 -40 97 -22 32 15 34 14 58 -10 28 -28
65 -33 99 -15 17 9 25 6 47 -15 28 -27 73 -34 100 -17 10 7 24 -1 47 -26 26
-27 39 -34 56 -29 63 17 63 17 81 -15 17 -31 19 -32 72 -26 43 4 55 2 55 -8 0
-22 41 -45 82 -45 27 0 40 -5 48 -20 15 -29 64 -51 97 -44 25 5 31 1 45 -30
20 -40 50 -52 90 -37 24 9 28 7 34 -12 12 -41 35 -57 81 -57 40 0 45 -3 55
-30 12 -36 35 -50 82 -50 30 0 37 -5 53 -37 16 -34 23 -38 61 -41 34 -3 42 -7
42 -23 0 -32 44 -69 83 -69 31 0 35 -4 46 -40 12 -42 34 -60 73 -60 19 0 27
-9 38 -42 13 -39 19 -44 58 -52 33 -8 42 -14 42 -31 0 -32 20 -53 65 -68 35
-12 41 -19 46 -51 7 -45 18 -56 61 -65 29 -6 33 -11 36 -44 4 -42 31 -67 74
-67 26 0 28 -3 28 -38 0 -42 17 -64 62 -81 21 -8 26 -16 26 -46 0 -39 15 -63
48 -76 18 -6 23 -17 26 -51 3 -36 8 -46 38 -66 30 -20 35 -29 36 -64 0 -42 29
-78 60 -78 10 0 14 -14 14 -49 0 -40 4 -53 22 -65 12 -9 30 -16 40 -16 14 0
15 -5 8 -31 -12 -40 2 -74 38 -96 25 -16 27 -22 21 -51 -10 -47 -1 -71 33 -88
20 -10 28 -20 24 -31 -21 -52 -18 -63 18 -98 31 -29 35 -38 26 -54 -17 -32
-12 -56 20 -86 26 -25 29 -32 23 -72 -5 -39 -3 -47 23 -74 24 -25 27 -32 16
-49 -16 -27 -15 -40 8 -94 17 -37 19 -53 11 -82 -12 -43 -7 -58 25 -79 23 -15
23 -17 9 -38 -21 -30 -19 -59 6 -91 21 -27 21 -35 -2 -93 -12 -30 -11 -34 15
-62 l28 -30 -21 -27 c-26 -33 -27 -54 -1 -87 11 -14 20 -28 20 -32 0 -4 -9
-18 -20 -32 -26 -33 -25 -54 1 -87 l21 -27 -21 -23 c-26 -27 -28 -82 -4 -108
15 -17 15 -20 -4 -41 -32 -36 -35 -57 -13 -95 l21 -35 -25 -26 c-29 -30 -32
-54 -12 -91 13 -22 12 -27 -10 -53 -27 -32 -31 -73 -9 -103 13 -19 12 -23 -15
-49 -33 -31 -38 -61 -16 -91 13 -17 11 -22 -21 -51 -36 -33 -39 -50 -19 -103
4 -10 -4 -21 -24 -32 -36 -20 -47 -57 -28 -95 13 -27 12 -29 -17 -44 -28 -16
-30 -21 -30 -73 0 -45 -3 -57 -18 -62 -30 -9 -50 -51 -44 -89 5 -31 2 -36 -29
-54 -29 -17 -36 -29 -36 -61 -1 -3 2 -17 6 -31 5 -23 1 -29 -23 -38 -37 -16
-55 -50 -46 -90 6 -28 4 -31 -17 -31 -37 0 -70 -41 -66 -81 3 -30 -1 -36 -37
-54 -36 -18 -40 -24 -43 -63 -3 -36 -8 -45 -30 -53 -43 -17 -62 -39 -62 -76 0
-26 -4 -33 -19 -33 -31 0 -71 -39 -71 -69 0 -31 -16 -51 -42 -51 -30 0 -58
-37 -58 -75 0 -31 -3 -35 -25 -35 -33 0 -75 -42 -75 -73 0 -19 -7 -27 -27 -32
-47 -11 -72 -33 -79 -70 -6 -32 -9 -35 -40 -35 -36 0 -56 -21 -68 -72 -5 -23
-12 -28 -37 -28 -44 0 -66 -15 -78 -53 -10 -28 -16 -33 -35 -30 -34 7 -66 -14
-82 -53 -13 -30 -18 -34 -53 -34 -44 0 -68 -18 -77 -57 -6 -22 -10 -25 -41
-20 -31 5 -39 2 -70 -32 -26 -30 -45 -40 -78 -45 -48 -8 -60 -18 -70 -58 -6
-24 -10 -26 -32 -17 -43 16 -62 10 -85 -26 -21 -33 -26 -35 -61 -29 -42 7 -81
-12 -92 -45 -5 -17 -12 -19 -54 -14 -45 5 -49 3 -73 -27 -25 -31 -26 -32 -61
-19 -34 12 -37 11 -73 -20 -33 -29 -42 -32 -76 -27 -35 6 -43 3 -69 -25 -27
-28 -32 -31 -55 -20 -38 17 -60 14 -90 -14 -31 -29 -26 -28 -75 -14 -35 11
-40 10 -69 -14 -30 -26 -32 -26 -70 -11 -38 15 -41 15 -75 -6 -30 -19 -41 -21
-61 -11 -39 17 -68 13 -93 -13 l-23 -24 -35 21 -36 21 -38 -22 -39 -23 -30 23
-30 22 -44 -21 c-43 -21 -43 -21 -72 -2 -35 23 -77 25 -94 4 -17 -20 -33 -19
-55 5 -22 24 -46 25 -86 5 -28 -15 -32 -14 -60 6 -37 26 -73 28 -98 5 -18 -16
-20 -16 -44 8 -28 28 -48 32 -94 15 -27 -9 -33 -7 -61 20 -34 35 -45 37 -85
16 -27 -14 -30 -13 -54 15 -26 31 -72 40 -103 21 -10 -7 -22 -1 -45 24 -29 34
-31 34 -71 23 -40 -11 -43 -10 -66 16 -24 28 -56 36 -95 22 -18 -6 -25 -2 -38
23 -13 27 -21 31 -57 31 -32 0 -48 7 -79 35 -28 25 -48 35 -72 35 -26 0 -39 7
-56 31 -21 29 -27 31 -66 26 -39 -4 -44 -2 -49 19 -9 33 -50 58 -84 51 -24 -5
-30 -1 -47 31 -18 34 -24 37 -67 40 -40 3 -48 6 -48 23 0 32 -36 59 -78 59
-36 0 -40 2 -51 39 -12 42 -34 56 -82 53 -22 -2 -28 3 -34 25 -10 42 -34 63
-72 63 -28 0 -33 3 -33 24 0 33 -29 63 -70 74 -29 7 -36 14 -41 42 -8 39 -41
70 -74 70 -18 0 -24 7 -29 38 -7 46 -30 69 -71 74 -26 3 -31 8 -36 40 -7 46
-22 65 -60 73 -25 6 -29 11 -29 40 0 37 -37 75 -71 75 -15 0 -19 8 -19 38 0
47 -16 70 -55 80 -26 7 -30 13 -33 50 -3 42 -36 82 -68 82 -10 0 -14 14 -14
44 0 48 -16 72 -55 82 -20 5 -22 10 -18 43 5 33 1 41 -27 64 -17 15 -36 27
-41 27 -5 0 -4 12 2 27 15 40 3 71 -35 94 -32 19 -34 22 -25 54 12 43 0 69
-41 90 -25 13 -29 19 -20 35 19 36 11 67 -25 97 -25 21 -32 32 -25 43 5 8 10
29 10 47 0 24 -7 38 -30 54 -23 18 -27 26 -20 40 16 28 12 58 -11 89 -18 24
-21 37 -16 81 6 48 4 53 -22 76 -28 25 -28 26 -12 54 14 24 14 32 2 61 -20 51
-24 84 -13 118 10 26 8 34 -15 61 -25 30 -26 32 -10 59 23 38 21 69 -4 96 -21
22 -21 25 -5 48 22 34 20 58 -6 91 l-22 28 22 38 c28 48 27 51 -3 87 l-24 29
24 23 c30 28 31 55 6 94 l-20 30 25 29 c29 35 31 66 4 99 l-19 25 24 23 c28
26 30 40 14 85 -10 28 -9 36 15 72 27 40 29 84 4 99 -5 3 5 19 23 34 33 27 33
28 22 74 -10 44 -9 48 12 62 37 24 48 61 30 97 -15 31 -15 32 10 51 36 26 45
54 30 92 -12 30 -11 32 22 59 33 26 35 31 30 72 -4 40 -2 45 24 59 33 17 46
55 32 93 -8 23 -5 28 27 47 32 18 35 24 34 66 0 43 2 47 33 62 34 16 49 48 41
91 -4 19 1 26 24 36 41 17 61 51 53 88 -6 26 -3 30 25 36 39 9 64 46 57 84 -5
25 -3 30 21 36 43 11 62 34 62 77 0 33 3 38 23 38 36 0 61 24 72 71 9 36 16
44 42 51 36 9 63 41 63 74 0 16 10 24 40 33 36 11 42 17 52 56 10 39 16 45 38
45 38 0 68 26 76 65 5 27 12 37 33 41 48 11 71 32 71 64 0 27 3 30 31 30 45 0
67 16 80 58 10 35 13 37 51 37 43 0 78 30 78 66 0 15 7 19 34 19 39 0 83 31
88 63 2 18 10 23 43 25 44 4 63 16 75 48 8 19 14 21 59 16 49 -4 51 -4 72 32
19 33 25 36 65 36 41 0 47 3 66 36 18 30 25 35 48 30 41 -8 69 4 86 35 13 27
17 28 59 22 41 -5 47 -3 74 26 26 28 33 30 73 25 42 -6 47 -4 70 25 22 29 27
31 52 21 42 -16 56 -12 87 21 27 28 32 31 55 20 39 -17 58 -13 89 19 26 27 30
28 49 15 30 -21 55 -18 93 11 31 23 35 24 55 10 32 -22 62 -20 95 8 26 22 31
23 53 10 36 -20 71 -17 97 8 23 21 25 21 52 5 38 -22 63 -21 87 2 23 24 38 26
54 6z"/>
<path d="M3317 6729 c-99 -9 -169 -24 -466 -104 -51 -14 -107 -25 -124 -25
-17 0 -59 -14 -93 -31 -35 -16 -132 -48 -216 -69 -84 -21 -184 -50 -221 -65
-63 -26 -456 -245 -530 -297 -82 -56 -197 -160 -266 -239 -42 -48 -121 -123
-176 -166 -182 -144 -309 -300 -375 -461 -18 -44 -45 -84 -78 -118 -33 -34
-64 -82 -92 -140 -23 -49 -59 -118 -80 -154 -60 -101 -88 -188 -120 -366 -14
-77 -28 -119 -58 -175 -44 -82 -76 -173 -91 -264 -13 -74 -13 -806 1 -960 19
-230 94 -497 198 -706 17 -35 40 -98 51 -139 58 -217 141 -365 346 -623 100
-126 156 -207 213 -309 45 -81 172 -208 325 -324 66 -51 167 -131 225 -179
170 -141 352 -216 451 -186 24 7 59 24 78 37 55 37 78 32 92 -18 33 -126 84
-188 195 -240 82 -38 172 -50 288 -36 103 11 99 12 301 -37 123 -30 179 -38
315 -45 91 -4 198 -14 238 -21 92 -17 192 -3 337 45 140 47 199 62 330 81 181
26 278 86 354 218 41 73 62 79 147 43 104 -42 145 -33 274 62 235 174 368 268
460 323 133 79 235 180 309 304 82 137 133 205 248 332 129 143 190 229 253
353 59 118 82 188 119 360 16 74 56 210 89 302 34 91 82 249 107 350 44 173
46 188 41 278 -4 52 -10 235 -15 405 -10 354 -14 379 -113 595 -54 119 -85
206 -117 335 -16 67 -41 150 -54 185 -61 164 -168 338 -292 480 -37 42 -84
111 -107 155 -94 187 -225 343 -393 470 -95 71 -653 422 -785 493 -120 64
-242 105 -395 131 -66 11 -214 43 -330 71 -115 28 -259 59 -320 70 -138 23
-338 31 -478 19z m433 -65 c47 -8 165 -35 262 -59 97 -25 241 -58 320 -74 175
-35 363 -96 487 -156 107 -52 156 -85 241 -158 34 -30 96 -74 138 -99 42 -25
121 -72 176 -104 261 -153 406 -305 579 -606 26 -46 84 -126 128 -177 174
-204 227 -309 298 -598 16 -67 68 -225 114 -350 47 -126 90 -256 97 -288 8
-40 10 -104 5 -204 -4 -94 -1 -213 8 -336 21 -273 11 -345 -75 -565 -63 -160
-110 -323 -149 -513 -52 -249 -95 -347 -229 -508 -38 -46 -99 -120 -136 -164
-36 -44 -109 -145 -161 -225 -53 -80 -107 -161 -120 -181 -53 -80 -96 -119
-175 -160 -44 -23 -121 -72 -172 -107 -50 -36 -128 -89 -173 -118 -45 -29
-112 -79 -150 -112 -101 -86 -112 -92 -167 -92 -70 0 -105 39 -136 151 -31
113 -63 179 -114 236 -106 120 -105 132 24 167 44 12 81 36 185 121 72 59 184
143 250 187 87 58 134 98 169 142 27 33 74 88 104 120 75 83 118 149 145 231
33 97 53 133 146 263 l80 113 79 242 c126 381 137 432 135 617 -4 442 -10 573
-31 640 -22 71 -40 158 -72 354 -24 143 -57 251 -103 341 -18 33 -100 150
-183 260 -83 110 -181 243 -219 295 -127 177 -219 263 -339 319 -74 34 -133
73 -237 157 -103 84 -169 119 -384 203 -265 104 -333 125 -549 166 -100 19
-190 37 -200 41 -10 4 -31 36 -47 70 -17 39 -34 64 -44 64 -8 0 -28 -21 -43
-46 -52 -90 -53 -90 -190 -103 -143 -13 -279 -44 -447 -101 -66 -22 -175 -52
-242 -65 -153 -31 -175 -40 -243 -102 -71 -65 -136 -106 -295 -186 -167 -84
-232 -132 -385 -286 -191 -192 -310 -377 -380 -585 -20 -61 -46 -114 -76 -155
-71 -98 -110 -177 -158 -321 -92 -274 -122 -507 -113 -855 8 -262 19 -330 73
-436 35 -69 38 -82 45 -199 8 -134 27 -206 76 -289 15 -25 47 -86 71 -136 73
-152 140 -249 349 -503 141 -170 216 -240 317 -293 34 -18 97 -62 141 -99 94
-78 184 -144 249 -182 25 -15 46 -34 46 -42 0 -8 -17 -55 -39 -103 -21 -48
-57 -146 -81 -218 -52 -155 -75 -185 -142 -185 -115 0 -241 64 -418 211 -73
61 -185 150 -250 199 -138 104 -197 168 -244 265 -42 86 -99 164 -197 270
-167 180 -216 262 -318 531 -43 115 -102 270 -131 344 -66 173 -105 313 -127
454 -14 93 -17 188 -17 586 0 547 1 552 94 727 43 81 52 108 65 196 26 173 59
264 146 399 27 43 59 99 70 125 11 26 40 69 65 95 29 31 63 86 94 153 81 174
152 259 335 405 61 49 135 117 165 150 139 161 352 313 642 460 101 51 194
101 208 110 14 10 62 23 107 29 82 12 164 37 278 85 33 14 89 28 125 32 36 3
127 26 202 50 123 39 286 70 463 88 64 6 213 -4 305 -20z m-205 -655 c7 -98
-2 -259 -16 -259 -16 0 -58 66 -70 110 -11 42 -10 50 27 143 21 53 41 97 45
97 3 0 10 -41 14 -91z m-147 -61 c2 -13 -3 -29 -10 -35 -7 -6 -82 -18 -165
-27 -84 -9 -160 -19 -168 -22 -30 -12 -14 -44 76 -154 101 -126 110 -142 112
-220 2 -78 -7 -105 -44 -120 -18 -8 -58 -47 -96 -94 -36 -45 -81 -91 -101
-103 -36 -22 -92 -31 -92 -15 0 4 68 75 150 157 149 149 174 186 135 201 -22
9 -58 -18 -175 -131 -58 -55 -143 -134 -189 -175 l-83 -74 -92 -3 c-89 -3 -91
-3 -66 14 13 10 146 101 295 203 274 189 297 209 260 240 -14 11 -36 -1 -163
-87 -81 -54 -237 -160 -348 -235 -111 -75 -219 -141 -240 -147 -21 -6 -111
-11 -199 -11 -88 0 -167 -5 -175 -10 -13 -8 -16 -77 -20 -487 l-5 -478 -3 480
c-1 264 -6 485 -10 492 -11 17 -58 33 -98 33 -24 0 -43 -8 -59 -25 -21 -20
-25 -34 -26 -92 -1 -37 -4 -133 -8 -213 l-6 -145 -30 -18 c-313 -195 -465
-293 -487 -317 -29 -31 -28 -60 1 -60 15 0 437 256 472 286 18 16 46 18 51 4
2 -5 2 -70 0 -144 l-3 -134 -60 -48 c-65 -52 -629 -627 -629 -641 0 -5 6 -17
13 -27 10 -14 18 -16 30 -10 18 10 138 126 439 423 109 107 201 191 205 187
12 -12 3 -378 -11 -403 -14 -27 -305 -357 -466 -528 -67 -71 -127 -140 -132
-152 -11 -23 -3 -73 11 -73 19 0 413 418 563 598 15 17 29 32 32 32 3 0 6 -94
6 -208 0 -161 -3 -218 -15 -253 -9 -24 -108 -174 -221 -334 -235 -332 -240
-341 -223 -361 6 -8 17 -14 25 -14 13 0 178 216 323 422 45 65 87 120 92 123
14 9 11 -168 -3 -186 -7 -8 -30 -27 -51 -43 -50 -37 -66 -72 -77 -168 -11 -98
-41 -163 -109 -241 -27 -31 -53 -66 -56 -78 -18 -56 28 -177 101 -266 42 -52
71 -55 144 -18 27 14 52 25 54 25 3 0 12 -13 21 -29 10 -20 24 -31 42 -33 27
-3 28 -5 33 -80 5 -62 10 -82 29 -102 22 -23 22 -24 6 -80 -9 -31 -20 -55 -23
-53 -50 23 -80 51 -176 162 -210 244 -306 384 -366 537 -18 46 -55 122 -83
170 -48 86 -49 89 -58 203 -7 92 -16 137 -44 218 -55 158 -58 177 -63 417 -8
400 -7 405 22 550 63 312 104 431 208 602 36 59 78 137 93 175 80 200 163 335
290 471 48 52 60 60 67 48 15 -27 57 -19 253 50 105 36 383 131 618 212 248
84 431 151 434 159 3 8 -1 22 -10 30 -14 14 -30 11 -174 -32 -263 -78 -609
-191 -833 -270 -116 -41 -216 -75 -222 -75 -39 0 119 115 302 220 80 45 174
103 209 127 62 43 66 44 91 30 28 -17 152 -12 453 18 161 16 193 28 162 59
-20 20 -36 20 -245 1 -91 -8 -205 -15 -255 -15 l-90 0 24 19 c14 11 88 35 165
55 78 20 220 60 316 90 161 50 260 71 365 79 56 5 60 3 63 -25z m567 -30 c195
-41 271 -65 484 -150 175 -69 193 -80 288 -169 71 -67 102 -88 201 -135 198
-95 271 -157 381 -324 71 -108 76 -106 -107 -34 -63 24 -122 44 -132 44 -11 0
-45 15 -77 34 -48 28 -264 126 -278 126 -7 0 -747 291 -766 300 -12 7 -21 5
-30 -6 -10 -12 -9 -18 7 -34 37 -35 603 -283 904 -396 120 -45 117 -56 -8 -27
-70 16 -76 16 -123 -1 l-50 -17 -77 49 c-110 70 -223 137 -407 237 -88 48
-174 96 -191 106 -28 17 -33 17 -44 4 -9 -10 -10 -22 -4 -35 5 -10 139 -97
298 -192 158 -96 288 -178 287 -184 -2 -15 -63 -26 -118 -21 -74 8 -110 28
-220 126 -118 104 -195 161 -217 161 -11 0 -16 -9 -16 -27 0 -21 20 -47 93
-117 57 -55 87 -90 79 -93 -30 -11 -123 9 -151 33 -37 31 -46 30 -73 -6 -37
-51 -94 -36 -113 30 -16 54 -77 92 -91 56 -3 -8 4 -37 16 -64 25 -59 23 -86
-7 -90 -28 -4 -38 16 -53 98 -18 109 -45 150 -76 118 -11 -11 -9 -29 6 -98 24
-104 25 -163 4 -198 -18 -32 -75 -75 -85 -64 -4 4 1 68 12 142 23 170 23 199
3 207 -25 9 -34 -8 -64 -137 -16 -67 -31 -125 -35 -128 -3 -3 -18 6 -33 21
l-27 27 48 96 c27 53 45 99 42 102 -3 4 -23 -2 -43 -13 -25 -14 -48 -40 -75
-87 -27 -47 -45 -68 -58 -68 -22 0 -23 1 -7 35 10 22 9 28 -3 36 -24 15 -46
10 -77 -16 -31 -26 -82 -34 -82 -12 1 6 25 39 55 72 43 46 55 55 60 42 3 -9 7
-24 10 -32 8 -26 43 -17 125 33 180 107 194 110 286 61 152 -82 211 -109 236
-109 33 0 38 14 23 65 -7 22 -23 96 -36 164 l-24 124 52 46 c82 74 206 224
191 231 -7 4 -85 15 -173 26 -139 16 -163 21 -183 41 -13 13 -20 27 -17 33 7
11 14 10 260 -42z m-61 -85 c15 -4 16 -7 5 -13 -23 -12 -199 -77 -256 -93
l-53 -16 26 52 c46 91 45 90 159 83 55 -4 109 -10 119 -13z m-589 -98 c61 -24
123 -47 138 -50 15 -4 27 -14 27 -23 0 -24 -156 -282 -180 -297 -13 -8 -13 27
2 136 l11 88 -64 68 c-36 38 -75 83 -87 101 l-23 32 33 -6 c18 -4 83 -26 143
-49z m555 -32 c0 -5 -9 -19 -19 -32 -17 -22 -23 -23 -72 -17 -30 4 -67 13 -84
20 l-30 13 35 7 c88 15 170 19 170 9z m-171 -223 c32 -47 66 -100 75 -117 16
-31 16 -33 -1 -33 -33 1 -99 37 -136 75 -44 45 -67 110 -67 184 l1 56 35 -40
c19 -22 61 -78 93 -125z m-557 -394 c100 -18 175 -53 235 -109 42 -39 92 -107
80 -107 -2 0 -21 14 -42 30 -43 34 -63 38 -72 13 -5 -11 7 -29 38 -57 25 -23
54 -51 64 -64 19 -23 19 -23 -45 4 -36 16 -81 37 -100 49 -56 34 -94 46 -146
48 -43 2 -49 -1 -52 -19 -3 -19 5 -23 57 -33 100 -20 261 -113 301 -174 18
-29 6 -31 -40 -7 -43 22 -70 21 -70 -3 0 -8 25 -32 55 -52 60 -42 68 -61 11
-25 -40 24 -79 23 -84 -2 -2 -11 10 -24 37 -37 35 -18 91 -76 91 -95 0 -3 -18
3 -41 14 -85 44 -124 0 -41 -45 74 -40 124 -117 57 -87 -82 38 -102 -8 -25
-56 28 -17 50 -36 50 -42 0 -14 -5 -13 -51 11 -50 25 -83 22 -87 -8 -3 -18 4
-24 36 -33 46 -14 118 -72 109 -87 -5 -8 -23 -5 -56 9 -49 21 -81 19 -81 -4 0
-7 30 -29 68 -48 55 -29 68 -40 70 -63 l3 -28 -61 32 c-55 30 -62 31 -77 17
-19 -20 -10 -36 33 -54 36 -15 104 -71 104 -85 0 -5 -17 -2 -37 7 -60 25 -96
34 -115 28 -36 -11 -17 -35 49 -65 38 -17 76 -38 85 -46 21 -19 25 -57 6 -50
-7 3 -67 24 -133 46 -195 65 -330 79 -330 36 0 -17 9 -21 70 -28 170 -18 435
-120 402 -153 -4 -4 -29 3 -56 15 -56 24 -82 26 -98 10 -13 -13 -6 -39 10 -39
24 0 147 -64 147 -76 0 -19 -9 -18 -65 7 -50 22 -95 19 -95 -7 0 -8 17 -22 38
-30 65 -25 101 -46 107 -62 9 -24 1 -24 -67 -1 -69 24 -98 21 -98 -10 0 -15
15 -23 68 -40 69 -21 132 -65 116 -81 -5 -4 -47 5 -94 20 -93 31 -289 67 -314
57 -21 -8 -20 -44 2 -51 9 -2 48 -7 85 -11 88 -9 241 -50 284 -76 19 -12 33
-29 33 -40 0 -23 3 -23 -64 2 -46 18 -58 19 -71 9 -9 -7 -14 -17 -13 -22 2 -4
37 -25 78 -46 56 -27 76 -43 78 -59 4 -28 -1 -28 -55 -2 -48 23 -86 22 -91 -2
-2 -12 16 -26 62 -47 61 -29 94 -61 81 -82 -3 -5 -24 -1 -48 10 -64 27 -112
33 -126 16 -19 -23 -6 -34 66 -56 37 -11 75 -28 85 -37 20 -18 24 -47 6 -39
-7 2 -37 12 -66 21 -42 13 -56 14 -67 5 -34 -28 -13 -44 80 -65 34 -7 75 -41
75 -62 0 -17 -9 -16 -53 2 -20 8 -50 15 -67 15 -52 0 -33 -30 45 -69 43 -22
71 -43 74 -55 3 -21 1 -20 -80 10 -39 15 -50 16 -63 5 -22 -18 -12 -29 53 -58
66 -29 91 -49 91 -75 0 -22 5 -23 -54 7 -27 14 -65 25 -83 25 -30 0 -34 -3
-31 -22 2 -16 13 -25 38 -33 59 -17 130 -64 130 -85 0 -25 -7 -25 -61 -1 -62
27 -119 31 -119 8 0 -7 37 -31 82 -52 78 -38 111 -66 95 -81 -4 -4 -33 5 -64
19 -49 22 -60 24 -72 13 -19 -19 -7 -33 49 -57 54 -23 93 -60 88 -82 -2 -13
-17 -9 -78 19 -97 45 -198 71 -307 80 -81 6 -91 9 -123 39 -19 18 -68 56 -107
84 -80 57 -115 95 -107 116 3 8 31 16 70 20 71 7 93 27 59 51 -14 10 -39 12
-100 8 -88 -7 -134 6 -171 47 -18 20 -18 21 109 18 134 -2 167 6 137 35 -11
11 -53 17 -145 21 -108 6 -136 4 -168 -9 -33 -14 -41 -15 -65 -2 -15 8 -38 26
-52 40 l-24 27 22 6 c33 8 28 39 -10 52 -25 9 -36 8 -55 -5 -47 -30 -53 -17
-53 130 0 74 3 141 6 150 3 9 16 16 28 16 11 0 28 5 36 10 20 13 2 42 -31 50
-23 6 -24 10 -32 135 -4 72 -6 182 -5 245 l3 115 132 -4 c117 -3 134 -1 139
14 4 9 3 20 -2 25 -5 5 -69 12 -141 16 l-133 7 0 621 c0 471 3 625 12 634 8 8
45 12 102 12 50 0 165 9 256 20 91 11 181 21 200 23 81 9 190 5 262 -7z m1048
-25 c183 -28 383 -27 481 4 16 5 19 1 19 -24 0 -20 -7 -35 -20 -43 -27 -17
-25 -28 7 -54 31 -24 27 -49 -12 -64 -35 -13 -33 -45 5 -59 38 -13 43 -51 6
-51 -26 0 -51 -24 -41 -40 3 -5 17 -10 30 -10 21 0 25 -6 31 -45 3 -25 3 -65
0 -89 -6 -41 -9 -44 -44 -50 -21 -3 -46 -12 -57 -20 -19 -14 -19 -16 -3 -32
15 -15 23 -16 53 -7 31 10 37 9 45 -7 16 -31 11 -85 -10 -113 -11 -14 -20 -31
-20 -39 0 -7 9 -19 20 -26 17 -10 20 -23 20 -88 0 -61 -4 -81 -20 -102 l-20
-25 20 -22 c16 -17 20 -35 20 -98 l0 -76 -32 -9 c-23 -6 -34 -15 -36 -30 -3
-19 1 -22 32 -22 l36 0 0 -56 c0 -73 -11 -91 -76 -120 -40 -17 -54 -29 -53
-42 6 -35 -12 -72 -42 -88 -17 -8 -37 -13 -45 -10 -18 7 -44 -3 -44 -17 0 -6
9 -21 21 -33 28 -30 16 -45 -34 -42 -36 3 -42 0 -45 -18 -2 -16 5 -25 27 -34
28 -11 31 -17 31 -55 0 -54 -18 -106 -43 -124 -23 -16 -12 -30 35 -45 22 -8
34 -18 36 -33 3 -20 -1 -23 -33 -23 -23 0 -38 -5 -42 -16 -8 -22 16 -36 54
-30 34 5 43 -6 43 -50 0 -22 -4 -24 -44 -24 -47 0 -60 -8 -50 -34 4 -10 22
-16 52 -18 39 -3 49 -7 62 -31 14 -27 14 -29 -13 -49 -22 -16 -25 -23 -16 -34
6 -8 23 -14 38 -14 45 0 171 -62 177 -87 8 -30 -1 -53 -20 -53 -12 0 -14 7
-10 29 6 28 5 29 -45 36 -27 4 -63 4 -79 0 -19 -4 -33 -1 -41 8 -7 10 -42 17
-99 21 -48 4 -123 18 -167 31 -44 13 -107 28 -139 34 -90 16 -390 14 -457 -3
-85 -23 -84 -23 -84 -1 0 23 28 39 108 60 43 12 57 20 57 34 0 26 -25 30 -95
15 -33 -6 -62 -10 -65 -7 -9 9 51 50 90 62 20 6 57 11 81 11 52 0 74 12 66 34
-8 21 -114 22 -181 2 -42 -13 -48 -13 -53 1 -3 8 0 19 8 24 37 24 125 49 172
49 58 0 83 11 74 33 -11 30 -91 27 -229 -8 -22 -6 -28 -4 -28 9 0 23 87 63
171 79 62 11 74 16 74 33 0 17 -7 19 -60 18 -33 0 -86 -9 -118 -19 -43 -13
-61 -15 -69 -7 -9 9 -7 16 5 30 22 24 73 39 165 47 67 7 73 9 70 29 -3 20 -7
21 -103 18 -55 -1 -111 -5 -125 -8 l-25 -6 27 21 c42 33 87 49 181 62 48 7 87
15 87 19 0 39 -130 46 -220 11 -91 -35 -98 11 -9 56 32 17 70 24 142 29 71 5
100 11 104 21 3 8 1 19 -5 25 -15 15 -149 11 -212 -7 -79 -23 -85 -23 -85 -1
0 38 58 59 176 65 59 3 111 9 114 13 16 15 -6 37 -42 44 -33 6 -187 -9 -233
-23 -8 -2 -2 7 15 21 27 23 51 30 163 52 24 5 31 38 9 47 -18 7 -123 -11 -162
-27 -34 -14 -45 -12 -45 9 0 19 93 60 183 79 18 4 27 13 27 26 0 17 -7 20 -38
20 -22 0 -65 -9 -98 -20 -71 -24 -74 -24 -74 -5 0 17 92 72 135 80 56 11 86
27 83 44 -5 24 -90 16 -157 -14 -39 -19 -57 -22 -65 -15 -18 18 36 57 110 80
36 11 74 20 83 20 10 0 26 6 37 14 17 14 18 16 3 31 -14 14 -24 15 -80 5 -35
-7 -79 -18 -98 -26 -42 -18 -51 -18 -51 0 0 15 121 69 180 81 62 12 70 16 70
36 0 32 -65 28 -172 -11 -72 -26 -88 -28 -88 -9 0 19 101 65 175 80 66 13 80
19 80 35 0 29 -86 31 -161 4 -91 -33 -94 -34 -94 -17 0 33 111 78 227 92 60 8
75 21 47 42 -23 17 -99 10 -189 -18 -73 -23 -75 -23 -75 -4 0 33 86 65 243 90
32 5 38 10 35 28 -3 20 -8 22 -62 19 -32 -1 -92 -14 -134 -28 -77 -26 -94 -25
-76 4 19 29 95 61 179 75 68 11 80 16 80 33 0 31 -83 31 -174 -1 -86 -29 -91
-30 -91 -11 0 20 114 73 215 99 74 20 90 27 90 43 0 38 -85 26 -234 -32 -77
-30 -101 -20 -53 23 18 15 32 31 32 35 0 4 -14 14 -30 20 -29 13 -30 14 -15
36 9 12 32 29 51 37 24 10 34 20 34 36 0 19 -4 21 -35 16 -19 -3 -35 -3 -35
-1 0 34 117 114 220 151 56 20 79 23 165 20 55 -2 161 -14 235 -26z m587 -474
c-1 -89 -3 -13 -3 168 0 182 2 254 3 162 2 -93 2 -241 0 -330z m299 386 c7
-102 -1 -999 -13 -1275 -4 -116 -9 -158 -18 -158 -7 0 -16 17 -20 38 -8 42 -7
1435 2 1470 3 12 13 22 23 22 16 0 19 -13 26 -97z m-3141 -763 c0 -465 -4
-966 -9 -1113 -8 -263 -9 -268 -29 -265 l-21 3 3 1099 c1 604 5 1105 8 1113 3
8 15 13 27 11 l21 -3 0 -845z m2937 -355 c-5 -81 -9 33 -14 425 -7 514 -4 738
10 770 10 22 13 -1064 4 -1195z m-2634 85 c3 -608 1 -1060 -4 -1060 -5 0 -9
438 -10 1018 0 559 -4 1042 -8 1072 -6 44 -5 53 5 43 10 -10 14 -243 17 -1073z
m3088 1034 l145 -46 68 -88 c143 -186 199 -278 222 -368 11 -46 19 -85 17 -87
-2 -3 -49 26 -104 62 -54 37 -191 122 -304 188 l-205 121 -3 100 c-3 96 3 164
14 164 3 0 71 -21 150 -46z m-357 -451 c1 -123 -3 -193 -9 -193 -6 0 -9 93 -8
263 1 173 4 238 8 192 4 -38 8 -157 9 -262z m-2832 -5 c-1 -40 -3 -10 -3 67 0
77 1 110 3 73 2 -37 2 -100 0 -140z m-70 140 c-3 -8 -6 -5 -6 6 -1 11 2 17 5
13 3 -3 4 -12 1 -19z m3277 -103 c155 -96 315 -189 394 -229 61 -31 82 -67 82
-140 0 -25 16 -109 36 -188 34 -134 37 -158 45 -368 5 -124 11 -266 15 -315 6
-88 -12 -205 -35 -228 -4 -4 -32 20 -62 55 -30 35 -98 109 -152 166 -54 57
-97 108 -95 115 3 7 28 25 57 41 45 24 57 37 79 85 36 77 34 137 -5 221 -17
36 -29 67 -27 69 5 5 70 -45 131 -102 44 -42 55 -48 68 -37 26 22 17 51 -32
95 -436 389 -646 565 -674 565 -10 0 -13 283 -3 293 8 8 11 6 178 -98z m-138
-313 c17 -15 84 -72 150 -126 65 -55 133 -113 151 -129 l32 -30 -20 -36 c-34
-63 -24 -126 29 -183 13 -15 22 -33 19 -41 -7 -19 -76 -42 -88 -30 -5 5 -18
39 -28 76 -12 43 -31 82 -55 111 -20 25 -49 74 -65 109 -27 60 -60 97 -87 97
-6 0 -28 -11 -48 -25 l-36 -24 0 129 c0 72 3 130 8 130 4 -1 21 -13 38 -28z
m-249 -54 c-2 -13 -4 -5 -4 17 -1 22 1 32 4 23 2 -10 2 -28 0 -40z m-2807
-625 c0 -367 -3 -663 -7 -658 -8 10 -5 1325 2 1325 3 0 5 -300 5 -667z m3126
369 c12 -31 38 -96 58 -143 25 -60 37 -106 40 -148 5 -86 12 -90 93 -54 37 17
83 36 101 43 31 12 72 53 72 72 0 5 -20 31 -45 57 -47 51 -54 75 -31 107 19
26 31 11 27 -34 -2 -29 5 -46 28 -76 37 -46 47 -92 31 -141 -9 -27 -31 -49
-88 -92 -43 -31 -114 -93 -159 -139 -61 -61 -94 -86 -129 -98 -123 -42 -270 8
-331 111 -37 63 -27 69 118 65 69 -1 129 2 140 8 26 14 75 103 89 161 10 41 9
53 -9 93 -15 35 -19 58 -14 96 5 41 1 57 -21 101 -27 51 -29 83 -4 74 7 -3 23
-31 34 -63z m-45 -74 c9 -17 -11 -48 -31 -48 -15 0 -40 57 -40 91 l0 33 31
-30 c17 -16 35 -37 40 -46z m-20 -169 c16 -17 29 -35 29 -39 0 -4 -11 -33 -25
-64 -29 -65 -57 -74 -63 -21 -6 47 8 155 20 155 5 0 23 -14 39 -31z m-3144
-461 c-1 -90 -3 -19 -3 157 0 176 2 249 3 163 2 -86 2 -230 0 -320z m2847 432
c40 -15 31 -27 -24 -33 -71 -9 -104 -27 -108 -59 -4 -29 19 -81 51 -115 23
-26 19 -29 -60 -37 -127 -13 -211 -69 -234 -158 -12 -45 -14 -47 -31 -31 -22
20 -23 63 -2 133 22 74 55 119 114 158 28 18 61 50 74 70 25 40 52 66 76 75
25 9 117 8 144 -3z m44 -99 c8 -5 12 -17 10 -27 -4 -24 -83 -32 -112 -11 -33
24 -13 47 41 47 26 0 54 -4 61 -9z m717 -372 c83 -88 157 -171 165 -184 12
-20 12 -33 1 -92 -22 -110 -92 -293 -112 -293 -17 0 -36 50 -41 106 -3 33 -16
80 -28 105 -25 47 -169 194 -259 263 -31 23 -60 53 -65 67 -8 23 -1 33 73 107
45 45 89 82 99 82 10 0 83 -71 167 -161z m-763 112 c11 -21 12 -28 3 -25 -28
11 -45 -25 -46 -99 0 -40 -5 -81 -10 -92 -6 -13 -7 24 -3 105 3 68 8 128 10
132 10 16 29 7 46 -21z m-216 -36 c8 -31 -9 -53 -44 -57 -19 -2 -28 -10 -30
-25 -2 -14 2 -23 10 -24 7 -1 22 -2 33 -3 29 -2 42 -86 13 -86 -18 0 -60 34
-69 57 -14 37 5 114 36 140 33 29 43 29 51 -2z m96 -117 c-2 -27 -9 -48 -15
-48 -5 0 -7 13 -3 31 3 17 7 59 7 93 l2 61 7 -45 c4 -25 5 -66 2 -92z m266 16
c2 -27 -2 -45 -12 -53 -24 -20 -46 -6 -46 29 0 76 53 97 58 24z m172 6 c15 -9
5 -15 -57 -34 -24 -8 -38 7 -29 29 6 17 62 20 86 5z m-651 -103 c75 -89 184
-95 458 -24 199 52 239 55 299 28 36 -16 104 -84 104 -103 0 -4 -29 4 -65 17
-69 26 -118 31 -159 16 -13 -6 -70 -44 -126 -85 -131 -98 -197 -120 -339 -114
-152 6 -168 23 -206 207 -14 68 -25 127 -24 130 0 3 8 -5 17 -19 9 -13 28 -37
41 -53z m-2592 -109 c-2 -18 -4 -4 -4 32 0 36 2 50 4 33 2 -18 2 -48 0 -65z
m3345 -75 c24 -28 30 -71 17 -132 -15 -72 -36 -113 -56 -109 -17 3 -112 163
-113 189 0 19 21 39 59 56 38 17 76 15 93 -4z m241 -85 c13 -18 21 -49 25 -96
4 -61 1 -77 -22 -128 -15 -33 -38 -70 -50 -84 -13 -14 -34 -45 -46 -69 -30
-61 -99 -132 -178 -183 l-66 -43 -111 -1 c-60 -1 -130 -6 -155 -12 -84 -21
-178 -15 -273 18 -50 18 -136 37 -200 46 -326 42 -376 55 -467 116 -44 29 -76
42 -109 46 l-46 4 -2 131 c-1 72 2 138 7 148 29 54 206 71 315 30 92 -35 181
-60 280 -77 50 -8 122 -29 160 -46 68 -30 74 -31 235 -33 91 -1 203 -5 250 -9
117 -12 182 7 238 68 50 54 66 108 60 203 l-5 72 70 -37 c39 -20 79 -49 90
-64z m-3280 -10 c12 -6 41 -25 63 -42 23 -18 92 -59 155 -91 70 -37 128 -75
151 -100 57 -62 148 -154 212 -215 49 -47 68 -77 127 -199 60 -124 79 -153
132 -205 103 -101 252 -161 462 -187 146 -18 336 1 418 43 35 17 97 89 97 111
0 19 43 57 65 57 12 0 34 -11 48 -24 44 -41 61 -85 61 -156 0 -78 -38 -168
-100 -239 -46 -53 -164 -132 -240 -160 -77 -29 -211 -51 -314 -51 -184 0 -462
68 -656 161 -110 52 -183 132 -289 313 -252 431 -267 453 -351 522 -29 23 -74
49 -100 59 -27 10 -89 36 -139 59 l-90 41 -162 0 c-88 0 -164 2 -167 5 -3 3 1
26 8 50 7 25 17 70 21 100 4 30 14 67 21 83 15 28 23 30 99 28 35 -2 69 6 210
49 39 12 230 3 258 -12z m1574 -35 c9 -25 -46 -45 -145 -53 -59 -4 -111 -14
-131 -25 -36 -18 -51 -13 -35 13 15 22 85 48 181 66 90 16 125 16 130 -1z
m1192 -30 c-1 -64 -12 -98 -29 -98 -23 0 -32 116 -12 133 31 24 42 14 41 -35z
m-119 -43 c-5 -22 -8 -27 -9 -13 -1 21 9 56 14 51 2 -2 0 -19 -5 -38z m256
-34 c13 -24 14 -30 2 -37 -42 -27 -76 13 -63 77 l7 38 19 -24 c11 -14 27 -38
35 -54z m-333 4 c-7 -28 -13 -25 -13 6 0 14 4 23 9 20 5 -3 7 -15 4 -26z
m-1065 -26 c3 -19 -3 -22 -59 -28 -33 -4 -89 -16 -123 -26 -73 -24 -66 -23
-66 -7 0 17 51 55 98 72 20 8 62 13 92 12 48 -2 55 -5 58 -23z m1898 -98 c9
-35 -24 -101 -113 -227 -69 -98 -79 -108 -90 -93 -22 31 -15 50 57 146 39 51
82 117 96 146 29 57 41 64 50 28z m-1881 -11 c0 -18 -11 -22 -87 -32 -48 -7
-106 -19 -129 -27 -48 -17 -58 -14 -39 9 33 39 134 75 205 72 43 -2 50 -5 50
-22z m-15 -104 c0 -16 -10 -21 -57 -27 -32 -3 -87 -19 -122 -35 -74 -34 -71
-33 -71 -16 0 37 125 96 203 97 40 0 47 -3 47 -19z m-1880 -20 c5 -11 10 -76
10 -145 0 -100 3 -128 16 -140 12 -13 43 -16 157 -17 78 -1 169 -5 202 -9 40
-5 -16 -7 -165 -8 -124 0 -234 3 -244 7 -19 7 -20 17 -17 162 1 84 5 157 7
161 9 14 23 9 34 -11z m-282 -13 c7 -7 12 -24 12 -39 0 -38 39 -91 85 -115 22
-11 41 -27 43 -35 1 -9 -20 -37 -48 -63 -42 -39 -56 -47 -82 -44 -27 3 -37 12
-67 61 -45 77 -52 141 -21 191 19 32 44 55 61 56 3 0 10 -5 17 -12z m160 -11
c2 -11 1 -35 -3 -54 -6 -31 -9 -34 -38 -31 -42 4 -58 44 -33 83 21 31 68 32
74 2z m2160 -31 c15 -8 35 -23 45 -34 15 -17 16 -25 6 -64 -17 -63 -5 -95 57
-153 30 -27 54 -53 54 -57 0 -16 -103 -7 -163 13 -72 24 -117 50 -169 97 -31
28 -38 41 -38 72 0 98 121 171 208 126z m-1891 -33 c-3 -10 -5 -4 -5 12 0 17
2 24 5 18 2 -7 2 -21 0 -30z m1644 -7 c-12 -13 -44 -32 -69 -41 -26 -10 -53
-23 -61 -29 -12 -9 -12 -8 -2 12 14 26 48 50 99 68 53 19 58 17 33 -10z m-421
-78 c41 -22 16 -17 -55 12 -42 17 -44 19 -15 14 19 -4 51 -15 70 -26z m390
-27 c0 -5 3 -23 6 -41 6 -29 5 -31 -12 -22 -49 27 -59 39 -45 56 14 17 51 22
51 7z m1759 -38 c12 -14 24 -36 27 -48 9 -36 -56 -151 -135 -240 -39 -44 -88
-103 -108 -132 -62 -85 -59 -88 -128 103 l-34 95 23 9 c20 7 24 18 30 80 8 82
1 77 148 110 53 13 107 28 120 35 33 18 34 18 57 -12z m-1051 10 c-10 -2 -28
-2 -40 0 -13 2 -5 4 17 4 22 1 32 -1 23 -4z m-2021 -19 c-3 -3 -12 -4 -19 -1
-8 3 -5 6 6 6 11 1 17 -2 13 -5z m1229 -60 c40 -20 63 -48 51 -61 -11 -10
-129 -16 -181 -9 -24 4 -52 13 -62 21 -18 13 -18 14 0 34 39 43 122 49 192 15z
m1439 -17 c0 -16 -18 -18 -240 -20 -220 -2 -541 9 -573 19 -7 2 -10 9 -7 15 5
7 133 9 413 7 382 -3 407 -4 407 -21z m-2832 -97 c5 -4 12 -36 16 -70 9 -72
20 -85 87 -95 41 -6 118 -56 104 -68 -10 -9 -142 31 -170 51 -16 12 -35 22
-42 22 -15 0 -78 -109 -78 -134 0 -9 19 -38 43 -64 79 -85 97 -126 55 -120
-17 2 -24 11 -28 33 -4 22 -15 35 -40 47 -53 27 -70 53 -70 110 0 65 -22 110
-71 144 -22 15 -47 37 -55 48 -16 24 -18 69 -4 97 10 18 19 19 128 13 64 -4
121 -10 125 -14z m384 -111 c85 -146 113 -214 113 -272 0 -42 -31 -172 -44
-185 -4 -4 -26 4 -49 17 -148 85 -189 96 -248 65 -30 -15 -31 -15 -24 8 15 54
37 108 45 108 4 0 13 -6 19 -14 6 -7 32 -19 56 -26 39 -11 51 -10 90 5 70 26
86 78 40 128 -32 33 -65 35 -101 4 -31 -27 -28 -57 6 -57 12 0 18 -4 15 -10
-11 -17 -44 -11 -55 11 -9 16 -9 28 0 50 8 19 10 46 5 77 -15 93 -12 145 14
185 13 21 28 36 35 34 6 -2 43 -59 83 -128z m-219 112 c12 -7 12 -16 0 -57
-12 -45 -16 -49 -43 -49 -29 0 -30 2 -29 42 1 62 33 89 72 64z m988 -12 c130
-45 226 -44 318 3 41 21 42 21 201 4 88 -10 164 -22 169 -26 5 -5 4 -21 -4
-39 -39 -95 -342 -128 -590 -65 -126 32 -289 112 -275 135 11 16 120 10 181
-12z m1058 -2 c11 -8 34 -82 71 -232 30 -121 55 -227 55 -236 0 -19 -37 -35
-100 -43 -159 -20 -223 -82 -202 -196 14 -82 8 -88 -82 -92 -58 -3 -72 12 -81
87 -9 70 7 98 93 168 80 65 129 127 174 223 28 60 33 79 32 149 0 63 -5 89
-22 122 -21 39 -21 43 -4 52 23 14 45 13 66 -2z m553 -21 c15 -14 113 -271
113 -296 0 -12 -26 -36 -69 -64 -38 -25 -109 -82 -159 -126 -50 -44 -96 -80
-101 -80 -6 0 -25 22 -41 48 -16 27 -41 54 -54 60 -37 16 -48 47 -102 265 -42
171 -47 199 -34 208 21 14 431 1 447 -15z m-2957 -269 c0 -17 4 -47 9 -65 11
-38 9 -39 -35 -11 -39 24 -40 26 -17 74 21 45 43 46 43 2z m256 21 c23 -11 26
-16 21 -51 -7 -48 -16 -58 -31 -33 -6 10 -21 31 -33 46 -13 15 -23 33 -23 39
0 15 32 14 66 -1z m585 -212 c79 -62 156 -108 212 -126 21 -7 40 -17 43 -24 5
-13 -22 -225 -30 -233 -3 -3 -41 4 -86 16 -44 12 -124 25 -178 29 -96 7 -97 7
-95 32 1 14 6 84 11 155 6 89 15 142 28 168 10 20 19 37 22 37 2 0 35 -25 73
-54z m-331 -80 c132 -77 156 -126 62 -126 -67 0 -82 -19 -93 -116 -14 -131
-45 -216 -117 -321 -39 -58 -43 -61 -63 -37 -20 24 12 139 78 278 50 105 57
127 57 180 -1 43 -7 74 -22 103 -25 48 -28 69 -9 76 23 10 33 7 107 -37z
m2078 7 c2 -14 -9 -36 -31 -60 -19 -21 -39 -48 -46 -60 -27 -52 -3 -123 72
-215 60 -73 73 -101 96 -197 16 -69 16 -82 4 -92 -11 -10 -24 -3 -64 37 -61
60 -113 162 -134 263 -9 41 -25 89 -36 108 -23 37 -86 77 -137 88 -29 6 -33
11 -30 33 5 41 53 67 149 80 45 7 92 19 103 27 28 19 50 14 54 -12z m-2239
-72 c-3 -8 -10 -8 -23 2 -12 8 -16 19 -11 26 6 10 11 10 22 -2 9 -8 14 -20 12
-26z m2301 9 c0 -20 -25 -38 -36 -27 -8 7 15 47 26 47 6 0 10 -9 10 -20z
m-1281 -66 c192 -36 173 -24 166 -102 -3 -37 -8 -86 -11 -109 l-5 -43 -62 0
c-92 0 -279 28 -294 43 -11 11 -11 30 2 115 8 56 15 106 15 112 0 16 42 12
189 -16z m616 -53 l0 -63 -75 -28 c-41 -15 -121 -46 -176 -69 -56 -22 -106
-41 -113 -41 -16 0 -15 171 2 194 8 11 42 22 107 32 52 9 124 22 160 29 97 19
95 20 95 -54z m-1370 -21 c11 -18 -26 -23 -43 -6 -15 15 -14 16 10 16 15 0 30
-5 33 -10z m1776 -61 c4 -8 16 -54 28 -103 23 -99 62 -191 122 -282 53 -82 51
-106 -10 -165 -59 -57 -127 -84 -259 -104 -109 -16 -176 -32 -342 -82 -148
-45 -211 -49 -460 -29 -212 18 -370 41 -500 74 -62 16 -98 19 -209 14 -147 -5
-216 5 -293 44 -54 28 -84 62 -98 115 -15 54 0 104 66 219 49 85 83 172 99
254 6 31 2 31 105 2 30 -9 82 -16 115 -16 82 0 156 -13 304 -54 215 -59 442
-86 563 -67 43 7 104 29 170 61 115 55 198 74 402 89 95 7 124 13 145 29 29
23 41 23 52 1z"/>
<path d="M3316 6538 c-8 -13 -19 -41 -25 -63 -13 -51 -37 -85 -60 -85 -9 0
-45 27 -78 60 -53 53 -65 60 -100 60 -24 0 -46 -6 -53 -15 -7 -9 -11 -17 -9
-18 55 -37 130 -102 164 -142 49 -57 65 -91 65 -139 0 -17 5 -37 12 -44 16
-16 60 -15 82 1 16 11 16 15 1 49 -27 66 -20 105 43 231 62 123 62 127 1 127
-19 0 -33 -8 -43 -22z"/>
<path d="M2775 6463 c-44 -13 -117 -36 -162 -49 -74 -22 -83 -27 -83 -49 0
-32 10 -55 24 -55 6 0 29 9 51 20 22 11 45 20 52 20 23 0 51 -59 73 -154 12
-50 25 -101 30 -113 18 -43 90 -22 90 25 0 15 -13 74 -30 132 -16 58 -30 113
-30 122 0 21 22 34 72 43 49 9 60 24 45 55 -16 33 -36 33 -132 3z"/>
<path d="M4190 6469 c-169 -33 -229 -242 -103 -361 35 -34 109 -67 147 -68 80
0 168 56 205 133 55 114 -5 257 -122 292 -56 17 -62 17 -127 4z m142 -106 c73
-73 44 -195 -55 -232 -116 -44 -209 75 -148 189 44 84 142 104 203 43z"/>
<path d="M3682 6398 c-35 -35 14 -102 57 -78 14 7 21 21 21 38 0 33 -16 52
-45 52 -12 0 -26 -5 -33 -12z"/>
<path d="M2345 6316 c-16 -8 -39 -21 -49 -29 -19 -14 -19 -16 13 -47 38 -39
80 -119 111 -215 12 -38 26 -74 30 -79 10 -10 59 1 83 19 18 13 16 19 -37 112
-34 61 -63 128 -75 174 -20 80 -28 87 -76 65z"/>
<path d="M4660 6285 c0 -36 -85 -222 -130 -285 -21 -30 -21 -32 -5 -51 10 -10
30 -19 44 -19 22 1 30 10 53 60 33 74 51 77 131 20 l55 -40 21 34 c27 42 19
63 -28 76 -20 5 -51 22 -70 37 l-33 28 19 24 c25 31 51 25 139 -34 70 -47 81
-48 105 -3 7 14 7 23 -1 33 -14 16 -273 155 -289 155 -6 0 -11 -16 -11 -35z"/>
<path d="M2063 6201 c-92 -42 -182 -157 -167 -215 10 -39 59 -76 102 -76 20 0
69 12 109 26 75 27 116 27 127 -1 9 -24 -2 -41 -46 -72 -34 -23 -54 -28 -114
-31 -41 -3 -74 -8 -74 -13 0 -4 8 -24 17 -44 15 -32 21 -35 57 -35 81 0 204
75 230 141 20 49 20 72 2 108 -29 55 -89 63 -217 31 -84 -22 -99 -20 -99 10 0
40 99 100 168 100 18 0 22 6 22 28 0 33 -27 62 -56 62 -10 0 -38 -9 -61 -19z"/>
<path d="M1659 5907 c-20 -8 -52 -24 -70 -37 -58 -41 -149 -132 -149 -149 0
-9 34 -45 75 -80 41 -36 96 -95 122 -133 26 -37 53 -68 61 -68 7 0 27 13 43
30 34 33 30 56 -15 80 -32 17 -35 55 -5 70 15 9 36 8 83 -4 86 -22 101 -20
138 13 l33 30 -26 9 c-14 6 -47 13 -72 17 -64 10 -73 23 -59 86 10 40 9 57 0
77 -28 56 -97 82 -159 59z m52 -87 c36 -20 16 -86 -41 -134 -35 -29 -58 -24
-86 19 -22 34 -10 62 44 96 51 32 55 33 83 19z"/>
<path d="M5080 5840 c-24 -24 -25 -38 -4 -68 17 -24 65 -30 82 -9 21 27 24 58
6 78 -22 25 -59 24 -84 -1z"/>
<path d="M5425 5652 c-146 -70 -156 -256 -21 -380 51 -47 91 -55 121 -22 20
22 14 50 -12 50 -30 0 -89 46 -107 83 -9 19 -16 55 -16 80 0 39 5 49 34 75
101 89 218 50 245 -82 8 -39 23 -42 56 -13 22 18 27 29 22 48 -11 38 -73 116
-117 145 -54 36 -148 43 -205 16z"/>
<path d="M1247 5548 c-61 -66 -157 -195 -157 -212 0 -8 56 -56 124 -108 69
-51 129 -103 135 -115 15 -32 46 -29 71 7 12 16 57 72 101 122 43 51 79 101
79 111 0 20 -34 57 -54 57 -7 0 -20 -14 -27 -32 -15 -37 -104 -147 -125 -155
-16 -6 -64 33 -64 52 0 6 23 33 50 60 28 27 50 52 50 56 0 3 -11 18 -25 33
-30 32 -61 34 -71 4 -11 -36 -64 -98 -84 -98 -9 0 -23 7 -31 16 -19 23 12 74
86 141 l60 54 -28 24 c-15 14 -33 25 -39 25 -6 0 -29 -19 -51 -42z"/>
<path d="M5813 5201 c-50 -16 -122 -34 -160 -40 -126 -22 -116 -17 -96 -52 26
-45 47 -53 84 -33 30 15 33 15 58 -3 26 -20 80 -107 81 -131 0 -7 -14 -26 -31
-41 l-31 -28 21 -42 c33 -63 48 -54 111 60 34 62 77 123 113 160 48 48 57 63
51 82 -15 50 -63 98 -96 96 -7 0 -54 -13 -105 -28z m61 -103 c-3 -13 -11 -29
-16 -35 -22 -27 -68 -7 -68 28 0 21 14 27 58 28 30 1 33 -1 26 -21z"/>
<path d="M987 5190 c-15 -17 -27 -41 -27 -53 0 -12 29 -66 65 -119 36 -54 65
-105 65 -114 0 -14 -14 -15 -117 -11 -65 2 -128 7 -140 11 -17 6 -26 1 -47
-30 -26 -38 -34 -78 -18 -88 4 -3 68 0 142 5 93 6 151 6 190 -2 30 -6 62 -11
70 -12 14 -2 69 85 70 110 0 6 -9 14 -19 18 -20 6 -139 181 -183 269 l-24 48
-27 -32z"/>
<path d="M6135 4821 c-11 -11 -69 -45 -130 -76 -92 -48 -117 -56 -152 -53 -24
2 -43 0 -43 -5 0 -4 13 -33 28 -65 16 -31 46 -99 67 -151 21 -51 45 -95 53
-98 16 -7 82 22 82 35 0 5 -11 19 -25 32 -22 21 -65 129 -65 164 0 16 174 113
218 122 27 5 32 11 32 35 0 15 -10 40 -22 54 -23 26 -23 26 -43 6z"/>
<path d="M695 4654 c-10 -28 -14 -49 -8 -55 5 -5 49 -21 98 -35 91 -26 168
-61 217 -97 20 -15 31 -18 39 -10 18 18 38 87 29 102 -4 8 -45 25 -91 38 -46
13 -117 42 -157 64 -41 21 -82 39 -91 39 -12 0 -24 -15 -36 -46z"/>
<path d="M605 4417 c-19 -47 -19 -83 1 -91 9 -3 32 -6 52 -6 49 0 135 -23 139
-37 2 -6 -54 -43 -125 -82 -71 -39 -135 -78 -143 -87 -7 -9 -13 -36 -13 -61
l-1 -46 80 2 c89 2 153 -9 234 -41 53 -21 54 -21 68 -2 8 10 13 35 11 54 -3
34 -4 35 -42 32 -39 -4 -186 26 -186 37 0 6 38 29 238 145 56 33 75 67 51 91
-8 7 -65 25 -127 39 -122 28 -176 48 -204 73 -17 15 -19 14 -33 -20z"/>
<path d="M6280 4354 c-43 -30 -134 -59 -216 -69 -87 -10 -91 -14 -76 -72 7
-26 15 -49 17 -51 2 -2 17 5 33 17 28 19 202 72 285 86 33 5 37 9 37 35 0 39
-17 80 -32 80 -7 -1 -29 -12 -48 -26z"/>
<path d="M6380 4088 c-19 -9 -91 -27 -160 -39 -69 -11 -135 -23 -148 -25 -27
-5 -36 -25 -28 -60 7 -25 8 -25 69 -19 80 9 92 -2 93 -93 1 -74 15 -88 67 -69
27 9 28 12 21 46 -5 20 -8 58 -9 85 0 46 2 50 28 57 18 5 32 3 41 -7 20 -20
32 -139 17 -171 -13 -29 -2 -43 34 -43 41 0 48 14 46 96 -1 87 -19 233 -29
249 -5 7 -19 4 -42 -7z"/>
<path d="M490 3844 c-7 -19 -9 -45 -6 -58 6 -23 10 -23 133 -28 71 -3 138 -10
150 -16 26 -14 44 -72 36 -114 -9 -48 -44 -63 -143 -63 -47 1 -109 5 -137 9
l-53 9 0 -70 c0 -38 3 -72 6 -76 4 -3 18 0 33 7 14 8 73 16 131 18 123 6 166
21 206 74 26 33 29 47 32 118 5 139 -32 172 -207 185 -74 5 -115 13 -131 24
-33 23 -37 22 -50 -19z"/>
<path d="M6209 3637 c-61 -23 -97 -55 -125 -113 -23 -47 -26 -63 -21 -115 7
-80 46 -144 107 -177 37 -19 56 -23 106 -20 77 5 131 38 171 105 37 62 40 166
7 228 -44 84 -155 125 -245 92z m140 -96 c50 -27 67 -120 31 -178 -24 -40 -67
-63 -117 -63 -154 2 -166 218 -15 259 28 8 64 1 101 -18z"/>
<path d="M658 3209 c-13 -7 -18 -23 -18 -55 0 -39 3 -46 26 -54 43 -17 84 13
84 61 0 47 -50 73 -92 48z"/>
<path d="M6045 3078 c-3 -13 -7 -36 -8 -53 -2 -28 0 -30 33 -28 53 4 77 -4 83
-28 14 -52 -43 -119 -100 -119 -15 0 -33 -4 -40 -8 -15 -10 -43 -75 -43 -102
0 -18 5 -17 66 15 75 40 85 38 118 -21 29 -51 65 -69 111 -54 73 24 114 101
147 277 14 76 7 97 -28 89 -35 -9 -171 11 -240 34 -74 26 -92 25 -99 -2z m276
-135 c9 -11 10 -26 1 -65 -21 -88 -69 -132 -102 -93 -24 29 7 171 38 177 24 6
50 -2 63 -19z"/>
<path d="M870 2819 c-34 -14 -34 -13 -6 -56 14 -21 34 -64 45 -96 20 -57 20
-58 1 -77 -40 -40 -72 -15 -99 77 -18 63 -39 76 -75 50 -19 -14 -18 -16 9 -90
29 -81 28 -107 -5 -107 -16 0 -28 15 -50 61 -16 34 -32 79 -35 100 -6 34 -10
39 -35 39 -57 0 -58 -18 -6 -175 26 -79 53 -151 60 -161 12 -16 15 -16 47 9
54 41 161 87 230 99 35 6 69 16 76 22 9 8 2 42 -32 144 -42 128 -65 173 -89
171 -6 0 -22 -5 -36 -10z"/>
<path d="M5900 2555 c-6 -8 -13 -29 -13 -47 -2 -28 1 -32 25 -34 38 -4 145
-44 159 -60 6 -7 8 -17 5 -22 -3 -5 -67 -31 -143 -57 -76 -27 -144 -52 -150
-58 -35 -26 -13 -46 141 -126 84 -45 158 -81 164 -81 11 0 42 50 42 68 0 5
-24 17 -52 27 -58 19 -138 62 -138 75 0 11 83 44 164 65 37 10 82 28 100 40
57 38 82 124 33 111 -26 -7 -146 33 -237 79 -79 40 -83 41 -100 20z"/>
<path d="M1045 2341 c-94 -66 -223 -131 -259 -131 -20 0 -36 -5 -36 -10 0 -20
41 -91 56 -97 8 -3 38 7 65 22 49 26 51 27 71 8 12 -10 34 -38 50 -62 45 -71
37 -94 -40 -120 l-51 -16 25 -43 c16 -27 32 -42 45 -42 11 0 61 30 112 66 51
37 116 78 145 92 28 15 52 31 52 37 0 20 -40 75 -54 75 -8 0 -35 -13 -59 -30
-25 -16 -53 -30 -63 -30 -22 1 -84 94 -84 127 0 27 42 61 86 69 26 5 34 11 34
28 0 23 -35 86 -47 85 -5 0 -26 -13 -48 -28z"/>
<path d="M5655 2070 c-8 -16 -15 -35 -15 -43 0 -7 38 -32 84 -55 46 -23 118
-66 160 -96 83 -60 88 -60 121 4 l15 28 -93 46 c-50 25 -121 68 -157 95 -36
28 -73 50 -82 51 -10 0 -24 -13 -33 -30z"/>
<path d="M5531 1884 c-26 -34 -26 -36 4 -64 31 -29 27 -48 -28 -113 l-40 -48
-63 6 -62 7 -17 -32 c-9 -17 -15 -34 -13 -36 7 -6 277 -74 297 -74 11 0 32
-11 47 -25 15 -14 33 -25 40 -25 18 0 104 101 104 122 0 10 -10 20 -22 24 -24
6 -122 137 -174 231 -16 29 -34 53 -41 53 -6 0 -21 -12 -32 -26z m108 -225
c13 -22 21 -43 18 -45 -8 -8 -74 7 -93 21 -17 12 -17 14 -1 39 25 37 50 33 76
-15z"/>
<path d="M1355 1787 c-66 -69 -151 -129 -174 -125 -14 3 -34 29 -66 83 -24 40
-85 -19 -62 -60 16 -30 197 -249 212 -258 17 -9 62 11 70 31 4 10 -10 31 -36
58 -40 41 -42 45 -29 68 13 26 90 89 168 139 58 38 61 52 21 93 -18 19 -35 34
-38 33 -4 0 -33 -28 -66 -62z"/>
<path d="M1695 1304 c-25 -26 -16 -85 16 -103 24 -13 29 -13 53 2 20 14 26 26
26 55 0 21 -5 43 -12 50 -17 17 -64 15 -83 -4z"/>
<path d="M5120 1275 c-7 -8 -12 -26 -12 -40 0 -14 5 -32 12 -40 19 -23 66 -19
84 7 21 30 20 44 -4 68 -24 24 -63 26 -80 5z"/>
<path d="M4065 5670 c-58 -4 -70 -8 -73 -24 -2 -10 0 -22 6 -28 5 -5 141 -18
303 -28 370 -25 359 -25 359 -1 0 10 -6 23 -12 29 -19 14 -502 58 -583 52z"/>
<path d="M2960 5043 c-22 -9 -30 -26 -18 -40 7 -8 36 -13 80 -13 54 0 70 3 75
16 4 11 -1 22 -12 30 -19 14 -96 18 -125 7z"/>
<path d="M2746 5027 c-31 -23 -14 -47 33 -47 40 0 75 22 68 44 -5 17 -79 19
-101 3z"/>
<path d="M3156 5014 c-4 -11 13 -24 70 -50 42 -19 81 -33 86 -32 17 6 -35 60
-76 79 -50 23 -72 24 -80 3z"/>
<path d="M2453 4994 c-3 -9 0 -20 8 -25 25 -15 101 -22 148 -13 36 7 46 13 46
29 0 18 -8 20 -98 23 -83 2 -98 0 -104 -14z"/>
<path d="M2814 4905 c-10 -26 4 -45 34 -45 37 0 67 22 59 44 -8 22 -85 23 -93
1z"/>
<path d="M2973 4904 c-9 -24 23 -44 69 -44 33 0 38 3 38 24 0 27 -16 36 -66
36 -23 0 -37 -6 -41 -16z"/>
<path d="M2445 4891 l-60 -6 -8 -149 c-5 -82 -5 -169 0 -195 l8 -46 142 -3
c120 -2 143 0 158 14 14 15 16 40 13 196 -2 146 -6 181 -18 188 -16 10 -135
11 -235 1z m163 -67 c21 -6 22 -12 22 -90 0 -45 -4 -85 -8 -88 -5 -3 -14 25
-21 61 -16 88 -25 103 -61 103 -36 0 -55 -26 -70 -98 -7 -28 -16 -54 -21 -58
-14 -8 -11 150 3 164 12 12 116 16 156 6z m-43 -240 c14 -9 33 -13 42 -10 15
5 15 4 -1 -9 -23 -17 -141 -21 -151 -5 -3 6 2 10 12 10 10 0 27 7 37 15 25 19
31 19 61 -1z"/>
<path d="M2714 4885 c-4 -9 -2 -21 4 -27 16 -16 47 -5 47 17 0 26 -42 34 -51
10z"/>
<path d="M2864 4785 c-8 -20 4 -35 29 -35 31 0 51 15 44 34 -8 20 -65 22 -73
1z"/>
<path d="M3013 4793 c-18 -7 -16 -40 3 -47 28 -11 65 -6 70 9 13 32 -32 55
-73 38z"/>
<path d="M3163 4744 c-7 -18 8 -30 57 -44 60 -17 110 -23 110 -13 0 27 -86 72
-138 73 -12 0 -25 -7 -29 -16z"/>
<path d="M2813 4664 c-3 -8 -1 -20 4 -25 14 -14 43 0 43 22 0 24 -38 26 -47 3z"/>
<path d="M2941 4666 c-17 -20 8 -36 68 -43 43 -5 52 -3 57 12 5 12 1 23 -11
31 -24 18 -99 18 -114 0z"/>
<path d="M3122 4639 c2 -20 11 -25 48 -30 25 -4 58 -12 73 -18 42 -16 69 -14
65 6 -5 24 -74 56 -135 61 -53 4 -55 4 -51 -19z"/>
<path d="M2750 4560 c-22 -13 47 -40 105 -40 48 0 72 23 44 41 -19 12 -130 11
-149 -1z"/>
<path d="M2974 4545 c-10 -26 6 -35 65 -35 67 0 77 6 54 32 -21 23 -111 26
-119 3z"/>
<path d="M3170 4510 c0 -21 50 -40 108 -40 42 0 39 19 -9 42 -48 25 -99 24
-99 -2z"/>
<path d="M2923 4430 c-42 -17 -27 -38 30 -45 69 -9 101 -4 105 16 6 30 -84 49
-135 29z"/>
<path d="M2366 4423 c-11 -11 -6 -23 9 -23 8 0 15 4 15 9 0 13 -16 22 -24 14z"/>
<path d="M2493 4420 c-42 -18 -27 -38 32 -45 58 -8 90 -4 140 15 30 12 30 12
7 21 -37 14 -154 20 -179 9z"/>
<path d="M2766 4415 c-3 -8 2 -19 11 -23 23 -14 53 -3 53 19 0 14 -7 19 -29
19 -16 0 -31 -6 -35 -15z"/>
<path d="M3124 4405 c-27 -19 -13 -27 94 -54 68 -17 96 -21 104 -13 18 18 -9
41 -66 56 -86 24 -112 26 -132 11z"/>
<path d="M2616 4311 c-69 -6 -83 -14 -67 -40 11 -17 251 -5 278 14 17 13 16
14 -10 24 -29 11 -81 12 -201 2z"/>
<path d="M2924 4306 c-10 -26 5 -36 52 -36 41 0 45 2 42 23 -2 18 -10 23 -46
25 -30 2 -44 -1 -48 -12z"/>
<path d="M2372 4293 c2 -13 15 -19 46 -21 37 -3 42 -1 42 17 0 18 -6 21 -46
21 -38 0 -45 -3 -42 -17z"/>
<path d="M3098 4304 c-20 -20 -2 -32 70 -47 42 -9 87 -17 100 -17 32 0 29 34
-5 49 -33 15 -155 26 -165 15z"/>
<path d="M2362 4193 c2 -12 12 -18 28 -18 36 0 33 29 -3 33 -23 3 -28 0 -25
-15z"/>
<path d="M2500 4201 c-38 -11 -30 -34 15 -44 87 -18 220 4 190 32 -13 12 -173
22 -205 12z"/>
<path d="M2760 4195 c-18 -22 -1 -37 36 -33 21 2 29 8 29 23 0 26 -46 33 -65
10z"/>
<path d="M2922 4198 c-23 -29 5 -43 76 -40 29 2 33 5 30 25 -3 19 -10 22 -49
25 -29 2 -50 -2 -57 -10z"/>
<path d="M3084 4185 c-10 -24 3 -32 63 -38 32 -3 78 -13 103 -22 97 -34 82 18
-17 55 -64 24 -141 27 -149 5z"/>
<path d="M2356 4102 c-31 -30 39 -55 144 -50 61 2 75 6 78 20 2 11 -5 19 -20
22 -37 8 -196 14 -202 8z"/>
<path d="M2643 4084 c-9 -25 16 -34 98 -34 55 0 80 4 89 15 22 27 0 35 -91 35
-73 0 -91 -3 -96 -16z"/>
<path d="M2897 4093 c-4 -3 -7 -15 -7 -25 0 -14 8 -18 38 -18 41 0 63 15 55
36 -5 14 -74 20 -86 7z"/>
<path d="M3061 4081 c-8 -5 -11 -16 -8 -24 4 -11 28 -17 84 -22 43 -5 91 -12
108 -16 21 -6 33 -5 43 5 12 12 10 16 -14 29 -55 28 -185 45 -213 28z"/>
<path d="M2340 3977 c0 -24 24 -37 67 -37 47 0 59 21 24 40 -28 15 -91 13 -91
-3z"/>
<path d="M2514 3979 c-15 -26 19 -34 139 -34 119 0 122 1 125 23 3 22 2 22
-127 22 -83 0 -132 -4 -137 -11z"/>
<path d="M2853 3979 c-21 -21 -3 -39 37 -39 43 0 58 13 40 35 -15 18 -61 20
-77 4z"/>
<path d="M3040 3955 c-16 -19 -11 -21 117 -40 128 -19 123 -19 123 4 0 42
-209 73 -240 36z"/>
<path d="M2340 3871 c0 -16 9 -21 54 -26 70 -9 91 -4 91 20 0 18 -8 20 -72 23
-67 3 -73 1 -73 -17z"/>
<path d="M2544 3869 c-17 -28 28 -40 136 -37 97 3 105 4 105 23 0 19 -8 20
-117 23 -81 2 -119 -1 -124 -9z"/>
<path d="M2851 3871 c-23 -15 -5 -41 28 -41 31 0 46 21 28 39 -13 13 -37 14
-56 2z"/>
<path d="M2808 3759 c-36 -21 -21 -39 33 -39 47 0 50 2 47 23 -2 16 -10 23
-33 24 -16 2 -38 -2 -47 -8z"/>
<path d="M2637 3743 c-4 -3 -7 -13 -7 -20 0 -22 84 -13 88 10 3 14 -4 17 -36
17 -21 0 -42 -3 -45 -7z"/>
<path d="M2945 3740 c-9 -15 28 -25 168 -45 132 -18 164 -14 133 18 -30 29
-285 53 -301 27z"/>
<path d="M2374 3645 c-8 -21 4 -35 32 -35 28 0 44 28 23 41 -21 13 -49 11 -55
-6z"/>
<path d="M2514 3649 c-13 -22 16 -31 132 -39 119 -8 160 -2 151 23 -7 21 -270
36 -283 16z"/>
<path d="M2882 3648 c-28 -28 -13 -38 58 -38 62 0 70 2 70 19 0 10 -7 22 -16
25 -27 10 -99 7 -112 -6z"/>
<path d="M3088 3643 c-10 -2 -18 -12 -18 -22 0 -15 12 -19 70 -24 39 -3 86
-12 105 -18 27 -10 38 -10 47 -1 19 19 -8 39 -77 57 -58 15 -93 17 -127 8z"/>
<path d="M2327 3553 c-4 -3 -7 -14 -7 -24 0 -25 38 -35 59 -14 15 15 15 17 -3
31 -21 15 -39 18 -49 7z"/>
<path d="M2576 3540 c-90 -3 -131 -9 -134 -17 -6 -21 44 -33 136 -33 109 0
162 9 169 27 6 15 -14 34 -32 31 -5 -1 -68 -5 -139 -8z"/>
<path d="M2823 3543 c-7 -2 -13 -13 -13 -24 0 -16 7 -19 50 -19 42 0 50 3 50
19 0 27 -48 40 -87 24z"/>
<path d="M2978 3544 c-5 -4 -8 -15 -8 -24 0 -14 15 -18 92 -24 50 -4 114 -12
140 -17 95 -21 101 13 8 44 -52 17 -221 33 -232 21z"/>
<path d="M2357 3433 c-10 -3 -17 -12 -15 -21 3 -14 18 -18 91 -20 80 -3 87 -1
87 16 0 15 -9 21 -37 26 -42 6 -98 6 -126 -1z"/>
<path d="M2564 3425 c-10 -25 4 -33 69 -40 71 -8 131 4 135 27 5 27 -194 40
-204 13z"/>
<path d="M2835 3427 c-33 -25 -8 -37 80 -37 88 0 106 8 79 34 -20 20 -132 22
-159 3z"/>
<path d="M2335 3319 c-15 -24 17 -34 113 -34 90 0 97 1 97 20 0 19 -8 20 -102
23 -67 2 -104 -1 -108 -9z"/>
<path d="M2633 3323 c-7 -2 -13 -13 -13 -24 0 -17 8 -19 60 -19 46 0 62 4 67
16 3 9 0 20 -8 25 -15 9 -85 11 -106 2z"/>
<path d="M2822 3321 c-8 -5 -12 -17 -10 -27 2 -15 14 -18 70 -20 75 -2 94 9
58 38 -23 19 -94 25 -118 9z"/>
<path d="M3026 3311 c-37 -8 -45 -29 -14 -35 39 -8 203 -26 237 -26 25 0 32 4
29 17 -6 33 -172 62 -252 44z"/>
<path d="M2492 3223 c-44 -3 -53 -7 -50 -21 4 -23 42 -29 181 -31 110 -1 117
0 117 19 0 35 -74 45 -248 33z"/>
<path d="M2825 3204 c-24 -25 -1 -44 52 -44 31 0 45 5 50 16 14 37 -70 60
-102 28z"/>
<path d="M3004 3196 c-4 -10 -3 -21 2 -26 5 -4 59 -13 119 -20 159 -17 159
-17 163 1 5 25 -77 50 -185 56 -81 5 -93 4 -99 -11z"/>
<path d="M2330 3090 c0 -16 5 -21 23 -18 12 2 22 10 22 18 0 8 -10 16 -22 18
-18 3 -23 -2 -23 -18z"/>
<path d="M2450 3095 c-23 -28 0 -35 115 -35 112 0 145 5 145 20 0 11 -116 30
-187 30 -41 0 -64 -5 -73 -15z"/>
<path d="M2778 3079 c-31 -17 -20 -36 24 -43 31 -5 45 -3 57 9 15 15 14 18 -3
31 -23 16 -54 18 -78 3z"/>
<path d="M2950 3081 c-23 -6 -26 -13 -21 -40 0 -4 49 -11 108 -15 59 -4 127
-11 152 -17 53 -12 74 5 41 33 -30 24 -229 52 -280 39z"/>
<path d="M2357 2986 c-9 -23 21 -40 71 -40 40 -1 47 2 50 20 2 15 -4 23 -20
28 -42 11 -96 7 -101 -8z"/>
<path d="M2560 2983 c-21 -9 -30 -26 -20 -38 12 -15 312 -14 317 2 8 24 -43
37 -162 40 -66 1 -127 0 -135 -4z"/>
<path d="M2921 2967 c-11 -14 -10 -18 10 -26 29 -11 309 -34 318 -26 20 20
-104 55 -219 62 -80 5 -97 3 -109 -10z"/>
<path d="M2530 2872 c-14 -4 -26 -15 -28 -23 -2 -13 17 -17 125 -22 70 -4 161
-7 201 -7 65 0 72 2 72 19 0 11 -3 22 -7 24 -15 9 -338 16 -363 9z"/>
<path d="M3015 2863 c-29 -7 -47 -25 -37 -35 5 -5 56 -13 113 -18 57 -5 123
-12 147 -16 35 -6 42 -4 42 10 0 24 -53 43 -151 55 -46 6 -86 10 -89 10 -3 -1
-14 -4 -25 -6z"/>
<path d="M2930 2741 c-12 -8 -12 -13 -3 -22 11 -11 86 -18 313 -32 25 -1 35 2
38 15 2 12 -8 20 -35 28 -50 16 -293 24 -313 11z"/>
<path d="M2981 2642 c-8 -6 -11 -16 -8 -24 3 -10 38 -18 119 -27 62 -6 130
-14 151 -18 56 -9 50 22 -9 49 -52 22 -229 36 -253 20z"/>
<path d="M3016 2531 c-32 -6 -46 -28 -24 -36 25 -9 254 -41 266 -37 23 7 12
31 -20 41 -18 5 -62 15 -98 21 -36 6 -72 12 -80 14 -8 2 -28 1 -44 -3z"/>
<path d="M2842 2518 c-21 -21 -14 -38 16 -38 34 0 68 23 58 38 -9 16 -59 15
-74 0z"/>
<path d="M3012 2419 c-40 -8 -46 -14 -39 -34 5 -12 26 -15 109 -15 57 0 119
-4 138 -10 26 -8 38 -7 48 4 12 12 12 15 -4 24 -42 22 -202 42 -252 31z"/>
<path d="M3755 4996 c-87 -27 -127 -61 -95 -81 5 -3 44 5 86 19 42 14 86 26
98 26 27 0 46 18 39 36 -6 18 -73 17 -128 0z"/>
<path d="M3944 4995 c-10 -25 6 -35 57 -35 36 0 51 4 56 16 8 22 -14 34 -65
34 -28 0 -45 -5 -48 -15z"/>
<path d="M4140 4977 c0 -24 24 -37 66 -37 47 0 62 13 44 35 -16 19 -110 21
-110 2z"/>
<path d="M4507 4973 c-10 -3 -17 -12 -15 -21 2 -13 14 -17 48 -17 38 0 45 3
45 20 0 15 -7 20 -30 22 -16 0 -38 -1 -48 -4z"/>
<path d="M4320 4955 c0 -22 36 -36 83 -33 35 2 43 7 45 26 3 21 0 22 -62 22
-51 0 -66 -3 -66 -15z"/>
<path d="M3735 4876 c-58 -18 -85 -35 -85 -51 0 -21 41 -18 135 9 92 27 107
50 35 53 -25 1 -63 -4 -85 -11z"/>
<path d="M3937 4873 c-33 -9 -14 -37 31 -47 45 -10 79 6 64 30 -8 13 -69 24
-95 17z"/>
<path d="M4496 4844 c-10 -25 2 -34 43 -34 39 0 68 20 56 40 -10 17 -92 12
-99 -6z"/>
<path d="M4113 4834 c-8 -21 14 -34 58 -34 37 0 66 21 54 40 -11 17 -105 13
-112 -6z"/>
<path d="M4320 4831 c0 -27 84 -41 107 -18 24 24 6 37 -53 37 -47 0 -54 -3
-54 -19z"/>
<path d="M3933 4734 c-10 -27 35 -44 66 -25 12 8 12 12 2 25 -17 21 -60 21
-68 0z"/>
<path d="M4463 4733 c-7 -2 -13 -13 -13 -24 0 -16 7 -19 53 -19 55 0 79 13 70
36 -5 14 -82 19 -110 7z"/>
<path d="M4104 4719 c-10 -17 26 -40 56 -37 17 2 25 9 25 23 0 16 -8 21 -37
23 -20 2 -39 -2 -44 -9z"/>
<path d="M4263 4704 c-8 -20 13 -34 54 -34 44 0 63 9 63 31 0 16 -8 19 -55 19
-42 0 -57 -4 -62 -16z"/>
<path d="M4628 4643 c-54 -8 -62 -53 -9 -53 36 0 66 22 58 44 -4 9 -10 15 -14
15 -4 -1 -20 -4 -35 -6z"/>
<path d="M3863 4614 c-8 -22 6 -32 52 -34 61 -3 65 -2 65 19 0 23 -19 31 -71
31 -27 0 -42 -5 -46 -16z"/>
<path d="M4063 4623 c-7 -2 -13 -13 -13 -24 0 -16 7 -19 45 -19 33 0 45 4 45
15 0 25 -45 42 -77 28z"/>
<path d="M4404 4605 c-9 -23 13 -43 44 -38 64 10 72 14 72 33 0 18 -7 20 -55
20 -40 0 -57 -4 -61 -15z"/>
<path d="M4232 4588 c2 -19 10 -24 41 -26 42 -4 69 11 60 34 -3 9 -21 14 -55
14 -46 0 -49 -2 -46 -22z"/>
<path d="M3903 4522 c-29 -4 -31 -38 -2 -47 31 -10 71 3 67 22 -4 19 -34 30
-65 25z"/>
<path d="M4037 4496 c-8 -20 13 -36 48 -36 38 0 59 18 44 37 -15 17 -85 17
-92 -1z"/>
<path d="M4200 4495 c-12 -15 -12 -19 5 -31 24 -18 99 -18 113 -1 18 21 0 35
-54 42 -40 6 -53 4 -64 -10z"/>
<path d="M4387 4503 c-4 -3 -7 -15 -7 -25 0 -17 7 -19 58 -16 50 3 57 6 60 26
3 20 0 22 -51 22 -29 0 -57 -3 -60 -7z"/>
<path d="M4547 4423 c-32 -5 -47 -31 -26 -44 38 -24 129 -2 129 31 0 17 -6 20
-37 19 -21 -1 -51 -4 -66 -6z"/>
<path d="M3885 4400 c-13 -21 17 -40 64 -40 54 0 76 12 68 34 -5 12 -21 16
-66 16 -33 0 -63 -5 -66 -10z"/>
<path d="M4128 4403 c-10 -2 -18 -13 -18 -23 0 -24 53 -36 93 -21 64 25 -2 63
-75 44z"/>
<path d="M4307 4404 c-4 -4 -7 -16 -7 -26 0 -17 7 -19 58 -16 49 3 57 6 57 23
0 17 -8 20 -50 23 -28 2 -54 0 -58 -4z"/>
<path d="M3838 4313 c-22 -6 -24 -39 -2 -47 51 -20 97 12 59 40 -19 14 -27 15
-57 7z"/>
<path d="M4513 4304 c-3 -8 -1 -20 5 -26 17 -17 86 2 90 25 3 14 -4 17 -43 17
-32 0 -47 -5 -52 -16z"/>
<path d="M3956 4301 c-16 -25 7 -41 56 -41 46 0 49 2 46 23 -3 19 -10 22 -50
25 -25 2 -49 -1 -52 -7z"/>
<path d="M4325 4297 c-29 -22 -8 -37 51 -37 46 0 54 3 54 19 0 32 -69 43 -105
18z"/>
<path d="M4145 4290 c-10 -16 2 -27 35 -32 36 -5 55 5 47 26 -7 18 -72 23 -82
6z"/>
<path d="M4614 4215 c-9 -22 9 -37 37 -33 16 2 24 10 24 23 0 26 -52 35 -61
10z"/>
<path d="M4029 4209 c-25 -15 -4 -44 38 -53 53 -11 95 -1 91 21 -3 18 -109 45
-129 32z"/>
<path d="M3835 4200 c-12 -19 17 -40 54 -40 44 0 66 13 58 34 -7 19 -101 23
-112 6z"/>
<path d="M4244 4195 c-10 -26 10 -36 62 -33 41 3 49 6 49 23 0 17 -8 20 -53
23 -41 2 -54 0 -58 -13z"/>
<path d="M4424 4195 c-10 -25 9 -37 52 -33 31 2 39 7 39 23 0 16 -8 21 -43 23
-32 2 -44 -1 -48 -13z"/>
<path d="M3817 4096 c-9 -23 18 -37 65 -34 35 2 43 7 43 23 0 17 -8 20 -51 23
-38 2 -53 -1 -57 -12z"/>
<path d="M4030 4080 c0 -17 7 -20 50 -20 43 0 50 3 50 20 0 17 -7 20 -50 20
-43 0 -50 -3 -50 -20z"/>
<path d="M4212 4088 c-18 -18 5 -38 44 -38 42 0 47 26 8 40 -32 13 -37 13 -52
-2z"/>
<path d="M4350 4065 c0 -25 2 -26 48 -23 39 3 47 6 47 23 0 17 -8 20 -47 23
-46 3 -48 2 -48 -23z"/>
<path d="M4540 4083 c-38 -15 -27 -53 15 -53 36 0 55 10 55 30 0 23 -38 35
-70 23z"/>
<path d="M3837 3984 c-21 -21 -5 -34 44 -34 43 0 50 3 47 18 -2 12 -14 18 -43
20 -23 2 -44 0 -48 -4z"/>
<path d="M4010 3971 c0 -26 85 -40 108 -18 23 24 5 37 -54 37 -46 0 -54 -3
-54 -19z"/>
<path d="M4195 3971 c-12 -20 6 -31 46 -31 33 0 40 3 37 18 -4 20 -72 30 -83
13z"/>
<path d="M4375 3960 c-13 -22 17 -40 66 -40 41 0 49 3 49 19 0 10 -7 22 -16
25 -26 10 -92 7 -99 -4z"/>
<path d="M4570 3955 c-19 -22 -3 -35 44 -35 44 0 74 19 61 40 -10 15 -91 12
-105 -5z"/>
<path d="M3840 3881 c-44 -12 -30 -36 24 -39 55 -4 76 9 56 33 -13 16 -38 18
-80 6z"/>
<path d="M4013 3864 c-9 -24 10 -36 53 -32 32 2 40 7 42 26 3 20 -1 22 -43 22
-32 0 -47 -5 -52 -16z"/>
<path d="M4210 3851 c0 -22 19 -31 66 -31 23 0 34 5 34 15 0 19 -31 35 -69 35
-24 0 -31 -4 -31 -19z"/>
<path d="M4410 3850 c-45 -28 60 -67 110 -40 24 13 26 35 4 44 -24 9 -97 7
-114 -4z"/>
<path d="M3824 3765 c-10 -24 9 -37 47 -33 26 2 34 8 34 23 0 16 -8 21 -38 23
-27 2 -39 -1 -43 -13z"/>
<path d="M3970 3765 c-22 -27 9 -41 83 -37 19 2 27 7 27 21 0 10 -7 22 -16 25
-29 11 -81 6 -94 -9z"/>
<path d="M4170 3741 c0 -14 10 -20 42 -25 47 -8 68 5 48 29 -7 9 -28 15 -51
15 -31 0 -39 -4 -39 -19z"/>
<path d="M4371 3741 c-32 -20 32 -56 81 -46 32 8 37 30 9 45 -24 12 -71 13
-90 1z"/>
<path d="M4583 3743 c-19 -7 -15 -40 5 -45 25 -7 62 9 62 26 0 21 -36 32 -67
19z"/>
<path d="M3894 3665 c-10 -25 9 -37 57 -33 36 2 44 7 44 23 0 17 -8 20 -48 23
-36 2 -49 -1 -53 -13z"/>
<path d="M4070 3655 c0 -20 32 -35 73 -35 41 0 49 7 36 31 -13 25 -109 28
-109 4z"/>
<path d="M4277 3643 c-10 -3 -17 -12 -15 -21 6 -31 128 -43 128 -13 0 21 -76
44 -113 34z"/>
<path d="M4424 3608 c-10 -15 24 -38 58 -38 21 0 28 5 28 19 0 29 -70 45 -86
19z"/>
<path d="M3930 3551 c0 -23 30 -35 76 -29 21 2 29 8 29 23 0 17 -8 20 -52 23
-48 3 -53 1 -53 -17z"/>
<path d="M4122 3539 c3 -21 9 -24 47 -27 79 -6 76 36 -4 45 -45 6 -47 5 -43
-18z"/>
<path d="M4284 3519 c-10 -17 13 -33 51 -33 44 0 56 12 31 30 -23 17 -72 19
-82 3z"/>
<path d="M3917 3453 c-13 -13 -7 -32 13 -38 30 -9 60 4 60 26 0 15 -7 19 -33
19 -19 0 -37 -3 -40 -7z"/>
<path d="M4072 3428 c3 -20 10 -23 56 -26 38 -2 52 0 52 10 0 25 -23 38 -68
38 -39 0 -43 -2 -40 -22z"/>
<path d="M4254 3426 c-9 -22 4 -34 44 -42 24 -5 33 -3 38 10 9 22 -4 34 -44
42 -24 5 -33 3 -38 -10z"/>
<path d="M3844 3345 c-10 -25 6 -35 57 -35 36 0 51 4 56 16 8 22 -14 34 -65
34 -28 0 -45 -5 -48 -15z"/>
<path d="M4042 3328 c3 -20 10 -23 51 -26 37 -2 47 0 47 12 0 20 -31 36 -70
36 -27 0 -31 -3 -28 -22z"/>
<path d="M4215 3320 c-12 -20 17 -40 56 -40 44 0 56 12 33 34 -17 18 -79 22
-89 6z"/>
<path d="M4370 3300 c-7 -4 -10 -15 -7 -25 8 -20 62 -17 62 4 0 17 -37 32 -55
21z"/>
<path d="M3858 3234 c-22 -7 -23 -30 -2 -38 23 -9 127 -7 142 3 35 22 -84 51
-140 35z"/>
<path d="M4075 3210 c-10 -16 3 -29 45 -41 44 -13 72 -7 64 15 -10 27 -96 47
-109 26z"/>
<path d="M4223 3184 c-8 -22 14 -34 65 -34 35 0 42 3 42 19 0 31 -95 45 -107
15z"/>
<path d="M3875 3127 c-25 -19 -2 -33 63 -40 42 -5 54 -3 59 9 8 22 -5 31 -58
37 -30 4 -52 2 -64 -6z"/>
<path d="M4078 3113 c-51 -13 7 -57 66 -51 41 4 47 33 9 42 -53 13 -58 13 -75
9z"/>
<path d="M4254 3086 c-9 -24 5 -36 42 -36 35 0 43 10 22 28 -26 20 -58 24 -64
8z"/>
<path d="M3833 3014 c-9 -24 15 -34 80 -34 44 0 57 3 57 15 0 33 -125 50 -137
19z"/>
<path d="M4042 2988 c2 -18 11 -24 38 -28 42 -7 60 -2 60 16 0 18 -32 34 -70
34 -27 0 -31 -3 -28 -22z"/>
<path d="M4230 2962 c0 -21 46 -37 75 -25 32 12 11 38 -33 41 -36 3 -42 0 -42
-16z"/>
<path d="M3762 2908 c-28 -28 -14 -39 46 -36 49 3 57 6 57 23 0 17 -8 21 -45
23 -26 2 -50 -2 -58 -10z"/>
<path d="M3922 2897 c-18 -21 0 -34 54 -41 40 -5 54 -3 64 9 18 22 4 31 -56
39 -36 4 -54 3 -62 -7z"/>
<path d="M4123 2879 c-20 -20 -3 -39 33 -39 38 0 47 22 15 40 -25 13 -34 13
-48 -1z"/>
<path d="M4295 2851 c-16 -27 58 -61 99 -45 16 6 22 29 9 37 -21 13 -101 18
-108 8z"/>
<path d="M4322 2627 c-15 -18 -63 -237 -57 -258 7 -20 47 -36 116 -45 58 -8
79 5 79 47 0 25 -5 29 -42 36 -38 8 -43 12 -46 39 -2 17 4 60 12 95 9 42 11
69 5 81 -11 21 -52 24 -67 5z"/>
<path d="M4527 2573 c-12 -19 -39 -224 -33 -247 5 -20 13 -26 35 -26 28 0 29
1 40 78 24 172 25 184 10 193 -17 11 -46 12 -52 2z"/>
<path d="M4684 2515 c-128 -77 -83 -256 71 -280 56 -9 85 15 92 76 7 58 -8 85
-55 104 -34 15 -38 15 -49 -1 -17 -24 -16 -31 7 -61 32 -41 7 -60 -29 -22 -39
42 -30 109 18 124 16 5 57 -8 103 -33 4 -2 12 6 18 17 14 27 -1 56 -43 81 -43
27 -84 25 -133 -5z"/>
<path d="M5208 2507 c-32 -7 -63 -17 -69 -24 -17 -17 -3 -63 20 -63 25 0 38
-18 46 -65 13 -85 14 -85 45 -85 41 0 50 23 37 94 l-11 59 33 28 c67 55 21 81
-101 56z"/>
<path d="M4897 2493 c-4 -3 -7 -62 -7 -129 l0 -124 27 -6 c32 -8 57 19 48 53
-3 15 1 25 14 32 24 13 49 -5 59 -44 9 -34 41 -45 64 -21 12 11 13 26 7 63 -4
26 -5 74 -2 105 5 54 4 58 -20 69 -35 16 -55 -1 -59 -49 -3 -32 -6 -37 -28
-37 -21 0 -25 5 -28 35 -2 19 -8 41 -14 47 -11 14 -50 18 -61 6z"/>
<path d="M2222 2748 c-5 -7 -15 -33 -22 -58 -6 -25 -25 -69 -41 -97 -41 -75
-39 -85 30 -122 69 -36 65 -36 85 -15 22 22 20 41 -9 66 -32 28 -31 49 5 126
17 35 30 72 30 82 0 29 -58 42 -78 18z"/>
<path d="M2424 2642 c-6 -4 -31 -43 -56 -87 -78 -138 -77 -117 -12 -186 62
-64 85 -71 111 -32 14 21 12 25 -29 62 -31 29 -40 43 -32 51 8 8 14 7 24 -5
19 -23 49 -18 62 10 10 22 8 29 -12 50 -29 31 -7 34 30 5 34 -27 67 -26 76 2
5 18 -2 30 -37 61 -52 46 -111 78 -125 69z"/>
<path d="M2605 2451 c-3 -11 -3 -36 0 -54 6 -32 3 -37 -41 -73 -86 -71 -87
-73 -71 -97 22 -34 38 -31 97 18 61 50 79 55 98 24 17 -27 52 -21 71 12 14 25
12 29 -40 105 -42 61 -60 80 -81 82 -19 2 -28 -2 -33 -17z"/>
<path d="M2815 2167 c-14 -11 -16 -21 -11 -50 6 -34 4 -38 -54 -88 -47 -42
-60 -60 -60 -82 0 -44 24 -43 89 7 63 49 88 56 98 30 3 -9 15 -19 27 -24 19
-7 14 -15 -56 -83 -43 -41 -78 -78 -78 -82 0 -18 23 -45 37 -45 9 0 30 12 45
27 23 22 32 25 46 17 27 -17 26 -51 -2 -85 -30 -35 -31 -39 -13 -63 24 -33 52
-14 126 84 72 96 81 116 59 138 -17 17 -21 15 -53 -13 -21 -20 -30 -23 -41
-14 -19 16 -18 33 5 53 33 30 33 56 -2 89 -17 16 -36 44 -43 63 -16 46 -74
134 -88 134 -7 0 -20 -6 -31 -13z"/>
<path d="M3090 1771 c-48 -50 -100 -141 -100 -174 0 -33 37 -62 106 -84 43
-13 56 -14 68 -3 28 22 18 47 -29 74 -25 15 -45 30 -45 35 0 4 19 7 42 7 34
-1 43 3 46 18 3 12 -5 26 -19 37 -33 25 -17 35 31 19 46 -15 73 -2 68 34 -3
21 -87 75 -117 76 -8 0 -31 -18 -51 -39z"/>
<path d="M4049 1784 c-62 -36 -79 -53 -79 -83 0 -25 39 -90 92 -155 23 -28 25
-28 54 -13 43 22 104 85 104 108 0 39 -36 36 -100 -8 l-25 -17 23 26 c33 36
22 72 -19 66 -16 -3 -29 -1 -29 4 0 4 4 8 8 8 14 0 52 40 52 55 0 31 -35 35
-81 9z"/>
<path d="M3284 1719 c-18 -29 -62 -234 -53 -245 18 -22 49 -23 62 -3 17 27 29
23 52 -14 35 -55 95 -45 74 12 -8 20 -6 30 11 50 11 15 27 41 36 59 14 31 13
37 -3 70 -11 22 -34 46 -58 59 -43 24 -109 30 -121 12z m87 -79 c26 -15 24
-49 -3 -59 -30 -11 -38 -6 -38 28 0 41 9 48 41 31z"/>
<path d="M3824 1689 c-55 -16 -58 -26 -29 -141 41 -166 40 -165 140 -127 93
35 108 83 50 165 -19 27 -35 56 -35 65 0 41 -56 58 -126 38z m116 -174 c0 -17
-29 -34 -47 -28 -7 3 -13 13 -13 24 0 14 7 19 30 19 20 0 30 -5 30 -15z"/>
<path d="M3512 1653 c-19 -37 -46 -214 -36 -231 14 -21 64 -34 117 -30 37 3
42 6 42 28 0 19 -6 26 -31 30 -55 12 -77 40 -30 40 62 0 77 43 29 79 l-28 20
37 1 c26 0 40 6 48 19 22 42 -7 61 -92 61 -35 0 -50 -5 -56 -17z"/>
<path d="M2605 999 c-4 -5 -1 -23 5 -40 8 -18 10 -49 6 -82 -19 -166 -20 -163
3 -211 37 -76 119 -114 208 -96 90 19 111 48 147 203 8 38 25 82 37 98 25 35
20 43 -35 58 -51 14 -66 1 -66 -54 0 -56 -36 -194 -57 -217 -32 -36 -143 -14
-158 31 -10 31 13 178 35 228 11 25 20 49 20 53 0 4 -29 15 -65 24 -76 19 -72
19 -80 5z"/>
<path d="M4090 942 c-60 -16 -65 -19 -62 -42 9 -63 -2 -242 -21 -355 -3 -15
64 -9 74 7 5 7 7 23 4 35 -5 22 16 52 38 54 7 0 34 4 62 8 62 10 69 8 94 -35
15 -26 27 -34 48 -34 37 0 73 10 73 20 0 5 -19 32 -43 62 -70 85 -162 230
-167 263 -6 36 -17 38 -100 17z m92 -185 c13 -25 -8 -49 -41 -45 -20 2 -27 9
-29 32 -2 15 -1 40 3 53 l6 26 25 -24 c14 -13 30 -32 36 -42z"/>
<path d="M3216 885 c-57 -20 -87 -45 -113 -95 -59 -112 -2 -257 115 -290 55
-15 158 -12 192 5 25 13 30 22 30 50 0 38 -10 43 -50 20 -33 -19 -123 -19
-160 0 -42 22 -70 63 -70 102 0 76 75 153 147 153 15 0 48 -9 72 -20 24 -11
45 -19 46 -18 9 11 13 66 6 77 -18 28 -153 38 -215 16z"/>
<path d="M3571 881 c-10 -7 -11 -16 -3 -42 6 -19 13 -91 17 -161 6 -120 5
-128 -15 -148 l-20 -20 177 2 178 3 3 44 c3 39 1 43 -15 36 -28 -11 -138 -18
-176 -11 -45 8 -50 26 -52 181 l-1 120 -40 3 c-21 1 -45 -2 -53 -7z"/>
</g>
</svg>
